<?xml version="1.0" encoding="UTF-8" standalone="no"?>
<!-- Created with Inkscape (http://www.inkscape.org/) -->

<svg
   xmlns:dc="http://purl.org/dc/elements/1.1/"
   xmlns:cc="http://creativecommons.org/ns#"
   xmlns:rdf="http://www.w3.org/1999/02/22-rdf-syntax-ns#"
   xmlns:svg="http://www.w3.org/2000/svg"
   xmlns="http://www.w3.org/2000/svg"
   xmlns:sodipodi="http://sodipodi.sourceforge.net/DTD/sodipodi-0.dtd"
   xmlns:inkscape="http://www.inkscape.org/namespaces/inkscape"
   version="1.1"
   id="svg2"
   width="29.999998"
   height="30.537548"
   viewBox="0 0 29.999999 30.537548"
   sodipodi:docname="contact.svg"
   inkscape:version="0.92.1 r15371">
  <metadata
     id="metadata8">
    <rdf:RDF>
      <cc:Work
         rdf:about="">
        <dc:format>image/svg+xml</dc:format>
        <dc:type
           rdf:resource="http://purl.org/dc/dcmitype/StillImage" />
        <dc:title />
      </cc:Work>
    </rdf:RDF>
  </metadata>
  <defs
     id="defs6" />
  <sodipodi:namedview
     pagecolor="#ffffff"
     bordercolor="#666666"
     borderopacity="1"
     objecttolerance="10"
     gridtolerance="10"
     guidetolerance="10"
     inkscape:pageopacity="0"
     inkscape:pageshadow="2"
     inkscape:window-width="1920"
     inkscape:window-height="1029"
     id="namedview4"
     showgrid="false"
     inkscape:zoom="20.85965"
     inkscape:cx="20.787588"
     inkscape:cy="11.298981"
     inkscape:window-x="1080"
     inkscape:window-y="1107"
     inkscape:window-maximized="1"
     inkscape:current-layer="svg2"
     fit-margin-top="1"
     fit-margin-right="1"
     fit-margin-left="1"
     fit-margin-bottom="1" />
  <path
     style="fill:#1a1a1a;stroke-width:0.06093907"
     d="M 12.736328 19.710938 C 12.208011 19.710264 11.669471 19.758073 11.28125 19.855469 C 9.3818294 20.331976 8.0984706 21.609469 7.5644531 23.556641 C 7.3786381 24.234205 7.3502914 25.480068 7.5039062 26.220703 C 7.6883964 27.110245 7.9760744 27.656758 8.5761719 28.257812 C 9.2787143 28.961488 10.02247 29.318147 11.160156 29.498047 C 11.674143 29.579417 13.138004 29.527203 13.701172 29.408203 C 13.969305 29.35152 14.339095 29.246448 14.523438 29.173828 L 14.857422 29.041016 L 14.876953 28.621094 C 14.903154 28.016767 14.907035 28.021307 14.404297 28.191406 C 13.692242 28.432294 12.973313 28.546622 12.177734 28.544922 C 10.354404 28.539812 9.2242414 27.777388 8.7558594 26.238281 C 8.6017594 25.731814 8.5996681 24.220302 8.7519531 23.648438 C 8.9451582 22.922939 9.3157581 22.263375 9.7949219 21.791016 C 10.50251 21.093466 11.311554 20.75645 12.451172 20.6875 C 14.619707 20.556303 16.102669 21.932336 16.105469 24.076172 C 16.107371 25.530999 15.599139 26.429814 14.921875 26.169922 C 14.798656 26.122637 14.672523 25.878822 14.626953 25.599609 C 14.607813 25.482307 14.624253 24.718299 14.664062 23.902344 C 14.703902 23.086407 14.720332 22.392298 14.701172 22.361328 C 14.629354 22.245128 13.426633 22.064906 12.738281 22.066406 C 11.95666 22.068103 11.659342 22.122527 11.181641 22.355469 C 10.15537 22.855899 9.5918573 24.02956 9.7695312 25.296875 C 9.8858554 26.126584 10.284757 26.704232 10.978516 27.044922 C 11.289158 27.196822 11.386576 27.212891 11.962891 27.212891 C 12.668373 27.212891 12.965354 27.120938 13.423828 26.757812 C 13.712663 26.528717 13.795097 26.52831 13.958984 26.75 C 14.03044 26.846653 14.215956 26.985467 14.371094 27.060547 C 14.758484 27.248054 15.44717 27.213852 15.896484 26.984375 C 16.813018 26.51625 17.319384 25.33409 17.246094 23.832031 C 17.207155 23.033996 17.100893 22.582986 16.806641 21.972656 C 16.306452 20.935169 15.404594 20.223847 14.126953 19.859375 C 13.782021 19.761174 13.264645 19.711611 12.736328 19.710938 z M 12.732422 22.982422 C 12.97799 22.976233 13.215187 22.993127 13.335938 23.039062 L 13.498047 23.101562 L 13.457031 23.787109 C 13.37556 25.159791 13.206035 25.74964 12.810547 26.03125 C 12.649419 26.145875 12.512242 26.181313 12.177734 26.195312 C 11.659023 26.216732 11.381813 26.080638 11.162109 25.697266 C 11.037402 25.479654 11.019531 25.366653 11.019531 24.837891 C 11.019531 24.293133 11.038123 24.191036 11.191406 23.878906 C 11.388718 23.477106 11.687291 23.205441 12.078125 23.072266 C 12.233286 23.019416 12.486853 22.988611 12.732422 22.982422 z "
     id="path4494" />
  <path
     style="fill:#1a1a1a;stroke-width:0.06093907"
     d="m 21.927332,25.294033 c -1.575274,-0.468457 -3.008105,-0.893934 -3.184066,-0.945507 l -0.319929,-0.0938 v -0.394415 c 0,-0.241394 0.0255,-0.394397 0.06571,-0.394397 0.03614,0 1.462686,0.411337 3.170104,0.914095 1.707417,0.50274 3.157489,0.914077 3.222384,0.914077 0.141173,0 -0.0021,0.453722 1.921296,-6.08732 1.179988,-4.013028 1.425929,-4.912265 1.359925,-4.972307 -0.08528,-0.07752 -14.389647,-4.2970182 -14.567303,-4.2970182 -0.05714,0 -0.128783,0.04795 -0.159198,0.1065752 -0.03041,0.05863 -0.625453,2.045819 -1.32229,4.41593 l -1.266979,4.309268 -0.447086,0.150325 c -0.245898,0.0826 -0.4470881,0.1316 -0.4470899,0.10885 -2.1e-5,-0.171325 2.7835299,-9.4619655 2.8729299,-9.5889629 0.06305,-0.0896 0.236943,-0.2095449 0.386437,-0.2666474 0.229841,-0.08785 0.31575,-0.09275 0.556431,-0.0322 0.472843,0.119 14.355408,4.2037253 14.623144,4.3025653 0.136745,0.0504 0.32575,0.172375 0.42001,0.270673 0.348693,0.363947 0.382687,0.21266 -1.420968,6.324461 -0.902602,3.058526 -1.685685,5.629013 -1.740185,5.71219 -0.138145,0.21084 -0.330363,0.32403 -0.615375,0.362372 -0.196054,0.02642 -0.804268,-0.133874 -3.107893,-0.818947 z"
     id="path4490" />
  <path
     style="fill:#1a1a1a;stroke-width:0.06093907"
     d="m 24.188259,24.422586 c -0.137497,-0.100625 -2.407089,-4.516468 -2.453464,-4.773682 -0.06772,-0.375638 0.374665,-0.594195 0.630627,-0.311553 0.236059,0.260663 2.409332,4.572328 2.41481,4.79085 0.008,0.321755 -0.326811,0.488268 -0.591973,0.294385 z"
     id="path4488" />
  <path
     style="fill:#1a1a1a;stroke-width:0.06093907"
     d="M 3.0971605,19.208831 C 2.8402064,19.050281 2.3240336,18.487849 2.0677725,18.087257 1.4864893,17.17857 1.1317802,15.931206 1.0203927,14.404104 0.9803527,13.855287 0.9837127,13.834987 1.1761076,13.459542 1.464854,12.896077 2.4295568,11.461725 3.0004731,10.746991 4.3830424,9.0161713 6.0714661,7.384332 8.0941695,5.8240152 9.2148409,4.9595156 9.5880685,4.7233532 10.897367,4.0502161 c 3.469262,-1.7835817 6.676555,-2.780801 9.760393,-3.034709 0.424805,-0.035 0.449739,-0.02905 0.914086,0.216353 0.782292,0.41349 1.451015,0.882962 2.005996,1.4082941 0.789372,0.7471972 1.304554,1.5416093 1.510031,2.3284614 0.07933,0.3038174 0.08092,0.3903023 0.01085,0.5936523 C 24.916311,6.0917301 24.41794,6.6158024 23.572685,7.1670171 22.958208,7.5677319 22.700258,7.6967944 21.525151,8.1914316 19.64799,8.9815913 19.382839,9.0288063 18.695841,8.6952564 17.847184,8.2832191 17.418851,7.6078244 17.145508,6.2506825 17.021731,5.6361528 16.958615,5.5977928 16.016241,5.5644729 15.450209,5.5445229 15.25532,5.5641579 14.763672,5.6911728 13.270042,6.0769426 10.811402,7.478622 9.0212525,8.9649488 8.013442,9.8017284 7.3779018,10.657321 7.1250094,11.517778 6.9681395,12.05151 6.9776945,12.076115 7.495591,12.472805 c 0.55843,0.427717 1.0512998,1.005864 1.3174151,1.545372 0.16856,0.341722 0.1936689,0.454597 0.1897769,0.853142 -0.00508,0.528184 -0.084682,0.722119 -0.4943992,1.205609 -0.3939843,0.464922 -1.8778034,1.803286 -2.4668409,2.225019 -1.2171927,0.871482 -2.4076611,1.238159 -2.9443841,0.906919 z"
     id="path4486" />
  <path
     style="fill:#1a1a1a;stroke-width:0.06093907"
     d="m 16.515218,15.427573 c -1.395889,-2.007931 -2.570355,-3.721845 -2.609926,-3.80868 -0.146212,-0.320915 0.186182,-0.62916 0.515795,-0.478328 0.07294,0.03342 1.201523,1.599937 2.50796,3.481256 1.758823,2.532756 2.406094,3.420566 2.493823,3.420566 0.06517,0 1.711096,-0.742385 3.657626,-1.649742 1.946529,-0.907357 3.611701,-1.664336 3.700378,-1.682169 0.306966,-0.06177 0.535523,0.345643 0.341514,0.60872 -0.07774,0.10535 -7.842484,3.759155 -7.988767,3.759155 -0.04424,0 -1.222514,-1.642846 -2.618403,-3.650778 z"
     id="path4484" />
  <path
     style="fill:#1a1a1a;stroke-width:0.06093907"
     d="m 14.370888,18.740549 c -0.268131,-0.07683 -0.501224,-0.1421 -0.517982,-0.1449 -0.09464,-0.01575 2.040331,-1.162629 2.165151,-1.162629 0.175247,0 0.394289,0.195597 0.394289,0.352082 0,0.207007 -0.185101,0.369337 -0.842505,0.73885 -0.363636,0.204382 -0.672471,0.368164 -0.686299,0.363964 -0.01383,-0.0035 -0.244523,-0.07052 -0.512654,-0.14735 z"
     id="path4489" />
</svg>
