<?xml version="1.0" encoding="UTF-8" standalone="no"?>
<!-- Created with Inkscape (http://www.inkscape.org/) -->

<svg
   xmlns:dc="http://purl.org/dc/elements/1.1/"
   xmlns:cc="http://creativecommons.org/ns#"
   xmlns:rdf="http://www.w3.org/1999/02/22-rdf-syntax-ns#"
   xmlns:svg="http://www.w3.org/2000/svg"
   xmlns="http://www.w3.org/2000/svg"
   xmlns:sodipodi="http://sodipodi.sourceforge.net/DTD/sodipodi-0.dtd"
   xmlns:inkscape="http://www.inkscape.org/namespaces/inkscape"
   version="1.1"
   id="svg2"
   width="29.999998"
   height="30.537548"
   viewBox="0 0 29.999999 30.537548"
   sodipodi:docname="mail.svg"
   inkscape:version="0.92.1 r15371">
  <metadata
     id="metadata8">
    <rdf:RDF>
      <cc:Work
         rdf:about="">
        <dc:format>image/svg+xml</dc:format>
        <dc:type
           rdf:resource="http://purl.org/dc/dcmitype/StillImage" />
        <dc:title />
      </cc:Work>
    </rdf:RDF>
  </metadata>
  <defs
     id="defs6" />
  <sodipodi:namedview
     pagecolor="#ffffff"
     bordercolor="#666666"
     borderopacity="1"
     objecttolerance="10"
     gridtolerance="10"
     guidetolerance="10"
     inkscape:pageopacity="0"
     inkscape:pageshadow="2"
     inkscape:window-width="1920"
     inkscape:window-height="1029"
     id="namedview4"
     showgrid="false"
     inkscape:zoom="20.85965"
     inkscape:cx="20.787588"
     inkscape:cy="11.298981"
     inkscape:window-x="1080"
     inkscape:window-y="1107"
     inkscape:window-maximized="1"
     inkscape:current-layer="svg2"
     fit-margin-top="1"
     fit-margin-right="1"
     fit-margin-left="1"
     fit-margin-bottom="1" />
  <path
     style="fill:#1a1a1a;stroke-width:0.0844866"
     d="M 8.7104688,2.6069464 C 8.4357151,2.5060286 8.2884981,2.5018562 8.0536518,2.552249 7.9711258,2.563188 7.8939902,2.580802 7.8219515,2.604491 7.7126079,2.623514 7.61095,2.664284 7.5058646,2.765144 c 0,0 -0.00254,0.00107 -0.00254,0.00107 -0.020359,0.01604 -0.03741,0.038823 -0.056848,0.056611 -0.024479,0.019975 -0.064412,0.040244 -0.08108,0.059297 -6.832e-4,7.808e-4 -0.017118,0.037526 -0.018034,0.038872 -0.00704,0.00819 -0.01495,0.014117 -0.021872,0.022579 -0.00346,0.00422 -0.071926,0.169483 -0.079606,0.1839717 -0.4408059,0.7456927 -1.1961787,2.6123869 -3.1951458,7.5394563 -0.2583162,0.623942 -0.3803579,0.922732 -0.5990941,1.4515 -0.299665,0.722897 -0.5371372,1.298719 -0.7584826,1.840399 -0.940619,2.289284 -1.4690091,3.630597 -1.6154633,4.218728 -0.0047,0.01571 -0.071901,0.181486 -0.072404,0.186924 -0.00806,0.08699 -0.00688,0.173188 0.00328,0.253689 0.00407,0.145599 0.047881,0.245987 0.112424,0.336275 0.058468,0.113643 0.1332912,0.225462 0.2388995,0.335538 0.1898313,0.197958 0.9875366,0.549112 4.0777282,1.795303 2.1131365,0.852189 4.0333669,1.628279 4.2687563,1.724289 l 0.4292482,0.173822 0.0048,-0.0065 c 1.325843,0.548208 1.448338,0.59834 2.778767,1.147272 0.204948,0.08456 0.225562,0.09402 0.427773,0.177422 0.235064,0.09681 2.147643,0.891567 4.251046,1.767501 0.883516,0.367936 1.249656,0.508591 1.800878,0.731771 0.361681,0.147137 1.821706,0.755518 1.882873,0.777992 0.274138,0.100691 0.420441,0.105728 0.65428,0.05576 0.245829,-0.03233 0.443441,-0.121855 0.607911,-0.272369 0.02448,-0.01997 0.06441,-0.04024 0.08109,-0.0593 6.84e-4,-7.81e-4 0.01712,-0.03753 0.01803,-0.03887 0.0071,-0.0082 0.01495,-0.01412 0.02187,-0.02257 0.0463,-0.05659 0.502188,-1.111608 1.148984,-2.639276 0.0021,1.65e-4 0.02107,0.02939 0.02217,0.02801 0.05965,-0.0749 0.956776,-2.274294 1.949381,-4.735873 0.04318,-0.104182 0.07045,-0.167837 0.113963,-0.272933 0.239207,-0.577812 0.341367,-0.832598 0.547114,-1.329806 0.359342,-0.866011 0.634244,-1.529236 0.885729,-2.145741 0.982316,-2.39199 1.501755,-3.713197 1.618031,-4.266041 0.0027,-0.0094 0.04932,-0.127722 0.04952,-0.131109 0.0021,-0.03493 -0.01451,-0.09122 -0.02161,-0.137132 0.0032,-0.192924 -0.05308,-0.311334 -0.140936,-0.425767 -0.01,-0.01914 -0.015,-0.04315 -0.0255,-0.06092 -0.173483,-0.293733 -0.26194,-0.373251 -0.575281,-0.515411 C 27.928107,10.469687 23.208354,8.5650796 18.429115,6.6216174 17.767316,6.3482761 17.721427,6.3291606 17.07124,6.0608947 16.866279,5.9763284 16.845688,5.9668789 16.643466,5.8834716 16.408403,5.7866692 14.495824,4.9919068 12.39242,4.1159718 11.506251,3.7469313 11.138141,3.6054477 10.58614,3.3819875 10.226805,3.2358133 8.7714091,2.6293358 8.7104688,2.6069464 Z m 9.2572182,4.9968688 c 0.06062,0.025083 0.106815,0.043535 0.167441,0.068625 4.813105,1.9918864 9.598952,3.9908638 9.665902,4.0561418 0.0027,0.0079 0.0031,0.01497 0.0052,0.02317 0.01379,0.02669 -0.0011,0.115879 -0.0493,0.274201 -0.06798,0.211946 -1.060961,2.689556 -2.319575,5.782801 l -0.544667,1.339221 -0.389941,0.946307 -0.162664,0.391764 c -0.04565,0.110529 -0.06441,0.152868 -0.10806,0.258529 -1.142897,2.765748 -2.019237,4.856545 -2.189878,5.230322 -0.08562,0.184621 -0.180625,0.392262 -0.219514,0.448374 -0.04679,0.04242 -0.101684,0.07058 -0.156729,0.07456 -0.09399,-0.01144 -2.025353,-0.78648 -4.303054,-1.727832 C 16.209507,24.293317 15.990218,24.211215 15.219925,23.89802 9.5491515,21.563138 2.2469052,18.52765 2.180352,18.452901 2.169206,18.440371 2.20043,18.337792 2.212555,18.276839 2.299012,17.92021 3.0737937,16.007261 4.9161395,11.480111 L 5.6520715,9.6998636 C 6.8646451,6.7624542 7.7554487,4.6360249 7.9400927,4.2300799 8.0142515,4.0690853 8.0853552,3.9176835 8.1239499,3.8533106 c 0.030355,-0.046175 0.073329,-0.1261587 0.089641,-0.1314928 0.00726,-0.00435 0.01248,-0.00913 0.019982,-0.01284 0.093497,4.814e-4 4.9074851,1.9359375 9.7341141,3.8948374 z"
     id="path4490"
     inkscape:connector-curvature="0" />
  <path
     style="fill:#1a1a1a;stroke-width:0.0844866"
     d="m 20.843167,25.198272 c -0.174868,-0.158815 -2.658999,-6.578402 -2.685368,-6.939795 -0.03851,-0.527781 0.603333,-0.764494 0.914947,-0.337432 0.287382,0.393852 2.653932,6.655743 2.629569,6.957819 -0.03597,0.444771 -0.521888,0.625441 -0.859148,0.319408 z"
     id="path4488"
     inkscape:connector-curvature="0" />
  <path
     style="fill:#1a1a1a;stroke-width:0.0844866"
     d="M 11.578127,11.676206 C 9.9468858,8.7040046 8.5779767,6.1695021 8.5361029,6.0440036 8.3813917,5.5802044 8.8846823,5.2037755 9.317089,5.4598681 c 0.095681,0.05673 1.422859,2.381314 2.949266,5.1658919 2.054964,3.748783 2.817687,5.06734 2.938639,5.080153 0.08984,0.0096 2.467509,-0.773612 5.283706,-1.740284 2.816195,-0.966672 5.222521,-1.767112 5.347383,-1.778747 0.432235,-0.04033 0.687842,0.554751 0.381939,0.889119 -0.122565,0.133892 -11.361441,4.037311 -11.563121,4.015946 -0.06098,-0.0065 -1.445532,-2.443538 -3.076774,-5.415741 z"
     id="path4484"
     inkscape:connector-curvature="0" />
  <path
     inkscape:connector-curvature="0"
     id="path5107"
     d="m 3.737479,18.18761 c 0.2360291,0.0096 6.510942,-2.820157 6.783354,-3.059097 0.397827,-0.348955 0.106729,-0.968024 -0.414969,-0.88249 -0.4811308,0.07888 -6.5616113,2.87881 -6.7562532,3.111098 -0.2865195,0.342083 -0.067161,0.811808 0.3878682,0.830489 z"
     style="fill:#1a1a1a;stroke-width:0.0844866" />
</svg>
