<?xml version="1.0" encoding="UTF-8" standalone="no"?>
<!-- Created with Inkscape (http://www.inkscape.org/) -->

<svg
   xmlns:dc="http://purl.org/dc/elements/1.1/"
   xmlns:cc="http://creativecommons.org/ns#"
   xmlns:rdf="http://www.w3.org/1999/02/22-rdf-syntax-ns#"
   xmlns:svg="http://www.w3.org/2000/svg"
   xmlns="http://www.w3.org/2000/svg"
   xmlns:sodipodi="http://sodipodi.sourceforge.net/DTD/sodipodi-0.dtd"
   xmlns:inkscape="http://www.inkscape.org/namespaces/inkscape"
   id="svg2"
   version="1.1"
   inkscape:version="0.92.1 r15371"
   width="746.66669"
   height="640"
   sodipodi:docname="next.svg"
   inkscape:export-filename="/home/r/workbench/rt_tec/rt_images/icons/next.png"
   inkscape:export-xdpi="90"
   inkscape:export-ydpi="90">
  <metadata
     id="metadata8">
    <rdf:RDF>
      <cc:Work
         rdf:about="">
        <dc:format>image/svg+xml</dc:format>
        <dc:type
           rdf:resource="http://purl.org/dc/dcmitype/StillImage" />
        <dc:title />
      </cc:Work>
    </rdf:RDF>
  </metadata>
  <defs
     id="defs6">
    <linearGradient
       id="linearGradient3783">
      <stop
         id="stop3785"
         offset="0"
         style="stop-color:#ffffff;stop-opacity:1;" />
      <stop
         id="stop3787"
         offset="1"
         style="stop-color:#ffffff;stop-opacity:0;" />
    </linearGradient>
    <linearGradient
       id="linearGradient3773">
      <stop
         style="stop-color:#ffffff;stop-opacity:1;"
         offset="0"
         id="stop3775" />
      <stop
         style="stop-color:#ffffff;stop-opacity:0;"
         offset="1"
         id="stop3777" />
    </linearGradient>
  </defs>
  <sodipodi:namedview
     pagecolor="#131313"
     bordercolor="#666666"
     borderopacity="1"
     objecttolerance="10"
     gridtolerance="10"
     guidetolerance="10"
     inkscape:pageopacity="0"
     inkscape:pageshadow="2"
     inkscape:window-width="1920"
     inkscape:window-height="1029"
     id="namedview4"
     showgrid="false"
     inkscape:zoom="1.365625"
     inkscape:cx="373.33334"
     inkscape:cy="320"
     inkscape:window-x="1080"
     inkscape:window-y="459"
     inkscape:window-maximized="1"
     inkscape:current-layer="svg2"
     fit-margin-top="2"
     fit-margin-left="2"
     fit-margin-right="2"
     fit-margin-bottom="2"
     inkscape:snap-text-baseline="false" />
  <path
     style="fill:#1a1a1a;fill-opacity:1;stroke:#a7a7a7;stroke-width:2.5;stroke-miterlimit:4;stroke-dashoffset:2.50015688;stroke-opacity:1;stroke-dasharray:none;opacity:0.444"
     d="M 191.1126,23.66772 409.84571,321.08272 191.1126,618.49775 489.29537,321.08272 Z"
     id="rect3045"
     inkscape:connector-curvature="0"
     sodipodi:nodetypes="ccccc"
     inkscape:export-xdpi="90"
     inkscape:export-ydpi="90" />
  <g
     style="font-style:normal;font-variant:normal;font-weight:normal;font-stretch:normal;font-size:40px;line-height:125%;font-family:Abel;-inkscape-font-specification:Abel;letter-spacing:0px;word-spacing:0px;fill:#ffffff;fill-opacity:0.94117647;stroke:#000000;stroke-width:0.5;stroke-miterlimit:4;stroke-opacity:1"
     id="text3852"
     transform="matrix(1.396707,0,0,1.396707,-65.078269,-240.06359)" />
  <path
     inkscape:connector-curvature="0"
     id="path4574"
     style="font-style:normal;font-variant:normal;font-weight:normal;font-stretch:normal;font-size:66.66666412px;line-height:60.00000238%;font-family:Abel;-inkscape-font-specification:Abel;letter-spacing:0px;word-spacing:0px;opacity:0.9;fill:#666666;fill-opacity:1;stroke:none;stroke-width:1px;stroke-linecap:butt;stroke-linejoin:miter;stroke-opacity:1"
     d="m 223.71686,552.46074 -23.61657,-2.03812 -3.51204,4.59796 15.89807,12.14326 -2.5596,3.35106 -37.25135,-28.45332 9.02807,-11.81964 q 1.44846,-1.89632 3.44571,-3.0033 1.97127,-1.1268 4.1706,-1.42129 2.19931,-0.29449 4.42356,0.29384 2.21812,0.54253 4.11446,1.99098 l 3.01334,2.30166 q 1.89635,1.44846 3.02931,3.46555 1.1268,1.97126 1.42129,4.17058 0.29449,2.19932 -0.248,4.41743 -0.56853,2.19828 -2.01698,4.09462 l 23.61656,2.03813 z m -28.4187,-21.0075 q -1.24691,-0.95243 -2.66914,-1.29836 -1.44819,-0.36577 -2.86857,-0.17558 -1.44638,0.17037 -2.74733,0.90426 -1.28111,0.70792 -2.23352,1.95482 l -6.34941,8.31271 14.96287,11.42895 6.34942,-8.31272 q 0.95242,-1.24691 1.29834,-2.66913 0.36577,-1.44821 0.17557,-2.8686 -0.21616,-1.44023 -0.92406,-2.72133 -0.73389,-1.30097 -1.98081,-2.25337 z"
     inkscape:export-xdpi="90"
     inkscape:export-ydpi="90" />
  <path
     inkscape:connector-curvature="0"
     id="path4576"
     style="font-style:normal;font-variant:normal;font-weight:normal;font-stretch:normal;font-size:66.66666412px;line-height:60.00000238%;font-family:Abel;-inkscape-font-specification:Abel;letter-spacing:0px;word-spacing:0px;opacity:0.9;fill:#666666;fill-opacity:1;stroke:none;stroke-width:1px;stroke-linecap:butt;stroke-linejoin:miter;stroke-opacity:1"
     d="m 236.99332,519.94677 q 1.61059,1.2302 2.56313,2.94496 0.97239,1.68879 1.22393,3.56736 0.25123,1.87863 -0.2163,3.78354 -0.49383,1.88512 -1.72403,3.49571 l -1.62704,2.13013 q -1.23019,1.61056 -2.91899,2.58298 -1.71476,0.95253 -3.59333,1.20407 -1.87863,0.25124 -3.78353,-0.21629 -1.88513,-0.49384 -3.49571,-1.72403 l -12.00147,-9.16699 q -1.61061,-1.23019 -2.58297,-2.91897 -0.95255,-1.71478 -1.2041,-3.59335 -0.25124,-1.87862 0.24228,-3.76369 0.46785,-1.90496 1.69804,-3.51553 l 1.62706,-2.13014 q 1.23018,-1.61059 2.94495,-2.56313 1.68878,-0.97237 3.56738,-1.22394 1.87862,-0.25123 3.76368,0.24229 1.90496,0.46786 3.51555,1.69806 l 6.2605,4.7819 -11.13132,14.57322 5.92281,4.52397 q 0.96116,0.73414 2.0962,1.02524 1.10905,0.27126 2.20871,0.12402 1.09959,-0.14774 2.09829,-0.70074 1.01847,-0.57948 1.7526,-1.54062 l 1.62704,-2.13015 q 0.73416,-0.96114 1.00542,-2.0702 0.29111,-1.13504 0.14386,-2.2347 -0.14774,-1.09959 -0.70073,-2.09828 -0.57946,-1.01847 -1.54063,-1.75261 l -1.76643,-1.34925 2.96009,-2.79837 z m -14.62387,-6.11065 q -0.96117,-0.73417 -2.07021,-1.00543 -1.13505,-0.29109 -2.2347,-0.14385 -1.09961,0.14774 -2.11813,0.72671 -0.99861,0.55348 -1.73276,1.51464 l -1.62706,2.13014 q -0.73413,0.96117 -1.02524,2.09618 -0.27127,1.10906 -0.12402,2.20872 0.14774,1.0996 0.72671,2.11814 0.55349,0.99861 1.51465,1.73276 l 3.94852,3.01598 8.69077,-11.37804 z"
     inkscape:export-xdpi="90"
     inkscape:export-ydpi="90" />
  <path
     inkscape:connector-curvature="0"
     id="path4578"
     style="font-style:normal;font-variant:normal;font-weight:normal;font-stretch:normal;font-size:66.66666412px;line-height:60.00000238%;font-family:Abel;-inkscape-font-specification:Abel;letter-spacing:0px;word-spacing:0px;opacity:0.9;fill:#666666;fill-opacity:1;stroke:none;stroke-width:1px;stroke-linecap:butt;stroke-linejoin:miter;stroke-opacity:1"
     d="m 261.97208,502.37664 -3.99894,-0.25742 q 0.59539,2.18235 0.22857,4.49353 -0.39279,2.29136 -1.88092,4.23965 l -0.61512,0.8053 q -1.23019,1.61059 -2.91898,2.58296 -1.71475,0.95254 -3.59333,1.20408 -1.87865,0.25124 -3.78355,-0.21629 -1.88511,-0.49384 -3.49569,-1.72404 l -0.25977,-0.19842 q -1.61061,-1.23019 -2.58297,-2.91896 -0.95255,-1.71476 -1.20409,-3.59335 -0.25124,-1.87864 0.24228,-3.7637 0.46784,-1.90495 1.69804,-3.51554 l 5.15891,-6.75408 -4.1044,-3.13502 q -0.96115,-0.73415 -2.07022,-1.00541 -1.13503,-0.29109 -2.23469,-0.14386 -1.0996,0.14774 -2.11813,0.72671 -0.99862,0.55348 -1.73277,1.51465 l -1.42862,1.87036 q -0.73414,0.96115 -1.02523,2.09619 -0.27129,1.10904 -0.12404,2.20871 0.14774,1.09957 0.72669,2.11812 0.55351,0.99863 1.51466,1.73277 l 0.96115,0.73417 -2.96009,2.79835 -0.25977,-0.19843 q -1.61058,-1.23019 -2.58297,-2.91897 -0.95255,-1.71477 -1.2041,-3.59334 -0.25123,-1.87863 0.24228,-3.7637 0.46788,-1.90496 1.69806,-3.51554 l 1.42862,-1.87036 q 1.2302,-1.6106 2.94495,-2.56313 1.68878,-0.9724 3.56737,-1.22394 1.87863,-0.25124 3.76369,0.24229 1.90496,0.46785 3.51556,1.69806 l 19.30107,14.74254 z m -14.51174,-7.71144 -5.15891,6.75406 q -0.73415,0.96115 -1.02525,2.0962 -0.27125,1.10904 -0.098,2.22856 0.14774,1.09958 0.72672,2.11811 0.55347,0.99863 1.51464,1.73279 l 1.11701,0.85321 q 0.96116,0.73414 2.09619,1.02524 1.10906,0.27126 2.20873,0.12401 1.09957,-0.14774 2.09826,-0.70074 1.01847,-0.57945 1.75264,-1.54061 l 1.62701,-2.13013 q 0.73418,-0.96116 1.00543,-2.07022 0.29111,-1.13504 0.14385,-2.23469 -0.14774,-1.0996 -0.70074,-2.09829 -0.57945,-1.01846 -1.54062,-1.75261 z"
     inkscape:export-xdpi="90"
     inkscape:export-ydpi="90" />
  <path
     inkscape:connector-curvature="0"
     id="path4580"
     style="font-style:normal;font-variant:normal;font-weight:normal;font-stretch:normal;font-size:66.66666412px;line-height:60.00000238%;font-family:Abel;-inkscape-font-specification:Abel;letter-spacing:0px;word-spacing:0px;opacity:0.9;fill:#666666;fill-opacity:1;stroke:none;stroke-width:1px;stroke-linecap:butt;stroke-linejoin:miter;stroke-opacity:1"
     d="m 280.46474,478.16587 -4.0509,-0.29711 q 0.64737,2.22203 0.28054,4.53323 -0.3928,2.29134 -1.88094,4.23963 l -0.6151,0.80531 q -1.23019,1.61058 -2.91897,2.58297 -1.71476,0.95253 -3.59334,1.20407 -1.87864,0.25124 -3.78355,-0.2163 -1.88511,-0.49383 -3.4957,-1.72402 l -12.00147,-9.16696 q -1.61058,-1.2302 -2.58297,-2.91898 -0.95255,-1.71476 -1.20409,-3.59335 -0.25123,-1.87863 0.24227,-3.7637 0.46785,-1.90496 1.69806,-3.51554 l 0.61511,-0.80531 q 1.36909,-1.79242 3.26712,-2.7695 1.89803,-0.97708 4.03026,-1.07603 l -12.88472,-9.84158 2.44058,-3.19522 37.25133,28.45333 z m -21.10996,-12.7513 q -0.96115,-0.73414 -2.07021,-1.00541 -1.13504,-0.29112 -2.2347,-0.14387 -1.09959,0.14774 -2.11811,0.72672 -0.99862,0.55349 -1.73279,1.51464 l -1.62702,2.13014 q -0.73416,0.96114 -1.02526,2.09619 -0.27127,1.10904 -0.124,2.20871 0.14774,1.09959 0.72668,2.11813 0.55349,0.99861 1.51465,1.73278 l 12.36516,9.44474 q 0.96115,0.73415 2.09619,1.02526 1.10907,0.27127 2.20873,0.124 1.09959,-0.14774 2.09826,-0.70072 1.01848,-0.57946 1.75263,-1.54061 l 1.62704,-2.13013 q 0.73415,-0.96116 1.00541,-2.07024 0.29109,-1.13502 0.14386,-2.23468 -0.14775,-1.0996 -0.70076,-2.0983 -0.57945,-1.01846 -1.54061,-1.7526 z"
     inkscape:export-xdpi="90"
     inkscape:export-ydpi="90" />
  <path
     inkscape:connector-curvature="0"
     id="path4582"
     style="font-style:normal;font-variant:normal;font-weight:normal;font-stretch:normal;font-size:66.66666412px;line-height:60.00000238%;font-family:Abel;-inkscape-font-specification:Abel;letter-spacing:0px;word-spacing:0px;opacity:0.9;fill:#666666;fill-opacity:1;stroke:none;stroke-width:1px;stroke-linecap:butt;stroke-linejoin:miter;stroke-opacity:1"
     d="m 317.01354,430.31582 -19.48289,-14.88143 q -0.96117,-0.73416 -2.07024,-1.00542 -1.13502,-0.2911 -2.2347,-0.14386 -1.09959,0.14774 -2.1181,0.72674 -0.99862,0.55345 -1.73278,1.51462 l -1.21037,1.58462 q -0.73413,0.96114 -1.02524,2.09618 -0.27126,1.10907 -0.14385,2.2347 0.14774,1.09958 0.72671,2.11812 0.55348,0.99863 1.51464,1.73277 l 19.48292,14.88145 -2.42072,3.16922 -19.4829,-14.88145 q -0.96118,-0.73415 -2.07024,-1.00541 -1.13503,-0.2911 -2.25453,-0.11787 -1.0996,0.14774 -2.11813,0.7267 -0.99862,0.55349 -1.73278,1.51465 l -1.21034,1.58463 q -0.73414,0.96115 -1.02527,2.09618 -0.27125,1.10903 -0.124,2.20871 0.14774,1.09958 0.72671,2.11811 0.55348,0.99863 1.51464,1.73279 l 19.48293,14.88143 -2.44057,3.1952 -26.60067,-20.31811 0.81352,-1.06508 4.03102,0.32308 q -0.64734,-2.22202 -0.25453,-4.51337 0.38665,-2.33718 1.87479,-4.28546 l 0.19842,-0.25978 q 1.72624,-2.26001 4.2322,-3.22521 2.50596,-0.9652 5.10434,-0.54352 -0.5322,-1.18804 -0.72998,-2.49081 -0.19779,-1.30277 -0.0427,-2.58283 0.12911,-1.29993 0.63704,-2.55728 0.48193,-1.27718 1.33514,-2.39421 l 0.19842,-0.25977 q 1.23019,-1.61058 2.94495,-2.56312 1.6888,-0.97239 3.56739,-1.22393 1.87862,-0.25124 3.76369,0.24227 1.90495,0.46786 3.51554,1.69805 l 19.30109,14.74256 z"
     inkscape:export-xdpi="90"
     inkscape:export-ydpi="90" />
  <path
     inkscape:connector-curvature="0"
     id="path4584"
     style="font-style:normal;font-variant:normal;font-weight:normal;font-stretch:normal;font-size:66.66666412px;line-height:60.00000238%;font-family:Abel;-inkscape-font-specification:Abel;letter-spacing:0px;word-spacing:0px;opacity:0.9;fill:#666666;fill-opacity:1;stroke:none;stroke-width:1px;stroke-linecap:butt;stroke-linejoin:miter;stroke-opacity:1"
     d="m 330.64718,397.33427 q 1.61058,1.2302 2.56314,2.94496 0.97237,1.68879 1.22392,3.56738 0.25123,1.87862 -0.2163,3.78353 -0.49383,1.88511 -1.72404,3.4957 l -1.62704,2.13013 q -1.23019,1.6106 -2.91897,2.58296 -1.71477,0.95254 -3.59334,1.20409 -1.87865,0.25124 -3.78354,-0.2163 -1.88511,-0.49383 -3.4957,-1.72402 l -12.00147,-9.16697 q -1.6106,-1.2302 -2.58298,-2.91898 -0.95254,-1.71477 -1.2041,-3.59336 -0.25123,-1.87862 0.24229,-3.76368 0.46785,-1.90496 1.69804,-3.51556 l 1.62704,-2.13012 q 1.2302,-1.61059 2.94496,-2.56312 1.68878,-0.97239 3.56738,-1.22393 1.87863,-0.25124 3.76369,0.24227 1.90494,0.46785 3.51554,1.69806 z m -14.62387,-6.11065 q -0.96115,-0.73415 -2.07023,-1.00542 -1.13503,-0.29109 -2.23468,-0.14386 -1.0996,0.14774 -2.11812,0.72672 -0.99863,0.55349 -1.73278,1.51464 l -1.62704,2.13013 q -0.73414,0.96115 -1.02524,2.0962 -0.27127,1.10904 -0.12403,2.20871 0.14774,1.09959 0.72671,2.11811 0.55348,0.99863 1.51465,1.73278 l 12.36516,9.44476 q 0.96115,0.73415 2.09617,1.02525 1.10907,0.27126 2.20874,0.12402 1.09958,-0.14774 2.09829,-0.70073 1.01845,-0.57947 1.7526,-1.54062 l 1.62704,-2.13013 q 0.73416,-0.96115 1.00541,-2.07022 0.29111,-1.13504 0.14385,-2.23469 -0.14774,-1.0996 -0.70073,-2.09829 -0.57946,-1.01846 -1.54061,-1.7526 z"
     inkscape:export-xdpi="90"
     inkscape:export-ydpi="90" />
  <path
     inkscape:connector-curvature="0"
     id="path4586"
     style="font-style:normal;font-variant:normal;font-weight:normal;font-stretch:normal;font-size:66.66666412px;line-height:60.00000238%;font-family:Abel;-inkscape-font-specification:Abel;letter-spacing:0px;word-spacing:0px;opacity:0.9;fill:#666666;fill-opacity:1;stroke:none;stroke-width:1px;stroke-linecap:butt;stroke-linejoin:miter;stroke-opacity:1"
     d="m 325.27866,370.65173 q -0.73416,0.96115 -1.02525,2.0962 -0.27128,1.10905 -0.12401,2.20871 0.14774,1.09959 0.72671,2.11811 0.55347,0.99863 1.51463,1.7328 l 18.93739,14.46475 -2.44055,3.1952 -26.60067,-20.31813 0.81352,-1.06506 4.03103,0.32308 q -0.64734,-2.22204 -0.25454,-4.51338 0.38665,-2.33717 1.87479,-4.28547 l 1.42863,-1.87036 3.55888,2.71836 z"
     inkscape:export-xdpi="90"
     inkscape:export-ydpi="90" />
  <path
     inkscape:connector-curvature="0"
     id="path4588"
     style="font-style:normal;font-variant:normal;font-weight:normal;font-stretch:normal;font-size:66.66666412px;line-height:60.00000238%;font-family:Abel;-inkscape-font-specification:Abel;letter-spacing:0px;word-spacing:0px;opacity:0.9;fill:#666666;fill-opacity:1;stroke:none;stroke-width:1px;stroke-linecap:butt;stroke-linejoin:miter;stroke-opacity:1"
     d="m 360.8069,357.84889 q 1.61058,1.23021 2.56314,2.94496 0.97237,1.68879 1.22392,3.56737 0.25124,1.87863 -0.21631,3.78354 -0.49383,1.88511 -1.72402,3.49568 l -1.62704,2.13014 q -1.23019,1.61059 -2.91896,2.58297 -1.71479,0.95254 -3.59336,1.2041 -1.87862,0.25123 -3.78354,-0.21631 -1.88511,-0.49382 -3.4957,-1.72403 l -12.00149,-9.16698 q -1.61058,-1.23019 -2.58295,-2.91897 -0.95255,-1.71477 -1.20409,-3.59334 -0.25124,-1.87864 0.24227,-3.76371 0.46785,-1.90495 1.69806,-3.51552 l 1.62702,-2.13015 q 1.2302,-1.61058 2.94496,-2.56312 1.68879,-0.97239 3.56738,-1.22394 1.87862,-0.25123 3.7637,0.2423 1.90494,0.46784 3.51553,1.69805 l 6.26051,4.78189 -11.13132,14.57323 5.92281,4.52396 q 0.96115,0.73416 2.0962,1.02525 1.10905,0.27125 2.20872,0.12402 1.09959,-0.14774 2.09827,-0.70073 1.01848,-0.57947 1.75262,-1.54063 l 1.62705,-2.13014 q 0.73414,-0.96114 1.00541,-2.0702 0.29109,-1.13504 0.14384,-2.23471 -0.14773,-1.09957 -0.70073,-2.09827 -0.57946,-1.01846 -1.5406,-1.75263 l -1.76645,-1.34924 2.96009,-2.79836 z m -14.62386,-6.11067 q -0.96117,-0.73415 -2.07022,-1.00541 -1.13504,-0.2911 -2.23471,-0.14385 -1.09959,0.14774 -2.11812,0.72672 -0.99861,0.55348 -1.73277,1.51463 l -1.62703,2.13014 q -0.73416,0.96115 -1.02525,2.09618 -0.27126,1.10907 -0.12402,2.20872 0.14773,1.09958 0.72669,2.11812 0.55351,0.99864 1.51467,1.73277 l 3.94853,3.01597 8.69076,-11.37801 z"
     inkscape:export-xdpi="90"
     inkscape:export-ydpi="90" />
  <path
     inkscape:connector-curvature="0"
     id="path4590"
     style="font-style:normal;font-variant:normal;font-weight:normal;font-stretch:normal;font-size:66.66666412px;line-height:60.00000238%;font-family:Abel;-inkscape-font-specification:Abel;letter-spacing:0px;word-spacing:0px;opacity:0.9;fill:#666666;fill-opacity:1;stroke:none;stroke-width:1px;stroke-linecap:butt;stroke-linejoin:miter;stroke-opacity:1"
     d="m 373.06697,356.93018 -4.00049,-3.05567 3.05566,-4.00048 4.0005,3.05565 z"
     inkscape:export-xdpi="90"
     inkscape:export-ydpi="90" />
  <path
     inkscape:connector-curvature="0"
     id="path4592"
     style="font-style:normal;font-variant:normal;font-weight:normal;font-stretch:normal;font-size:66.66666412px;line-height:60.00000238%;font-family:Abel;-inkscape-font-specification:Abel;letter-spacing:0px;word-spacing:0px;opacity:0.9;fill:#666666;fill-opacity:1;stroke:none;stroke-width:1px;stroke-linecap:butt;stroke-linejoin:miter;stroke-opacity:1"
     d="m 381.83711,345.44823 -4.00048,-3.05565 3.05565,-4.00049 4.00049,3.05565 z"
     inkscape:export-xdpi="90"
     inkscape:export-ydpi="90" />
  <path
     inkscape:connector-curvature="0"
     id="path4594"
     style="font-style:normal;font-variant:normal;font-weight:normal;font-stretch:normal;font-size:66.66666412px;line-height:60.00000238%;font-family:Abel;-inkscape-font-specification:Abel;letter-spacing:0px;word-spacing:0px;opacity:0.9;fill:#666666;fill-opacity:1;stroke:none;stroke-width:1px;stroke-linecap:butt;stroke-linejoin:miter;stroke-opacity:1"
     d="m 390.56755,334.01825 -4.00049,-3.05565 3.05565,-4.00049 4.00049,3.05565 z"
     inkscape:export-xdpi="90"
     inkscape:export-ydpi="90" />
</svg>
