<?xml version="1.0" encoding="UTF-8" standalone="no"?>
<!-- Created with Inkscape (http://www.inkscape.org/) -->

<svg
   xmlns:dc="http://purl.org/dc/elements/1.1/"
   xmlns:cc="http://creativecommons.org/ns#"
   xmlns:rdf="http://www.w3.org/1999/02/22-rdf-syntax-ns#"
   xmlns:svg="http://www.w3.org/2000/svg"
   xmlns="http://www.w3.org/2000/svg"
   xmlns:sodipodi="http://sodipodi.sourceforge.net/DTD/sodipodi-0.dtd"
   xmlns:inkscape="http://www.inkscape.org/namespaces/inkscape"
   version="1.1"
   id="svg2"
   width="29.999998"
   height="30.537548"
   viewBox="0 0 29.999999 30.537548"
   sodipodi:docname="phone.svg"
   inkscape:version="0.92.1 r15371">
  <metadata
     id="metadata8">
    <rdf:RDF>
      <cc:Work
         rdf:about="">
        <dc:format>image/svg+xml</dc:format>
        <dc:type
           rdf:resource="http://purl.org/dc/dcmitype/StillImage" />
        <dc:title></dc:title>
      </cc:Work>
    </rdf:RDF>
  </metadata>
  <defs
     id="defs6" />
  <sodipodi:namedview
     pagecolor="#ffffff"
     bordercolor="#666666"
     borderopacity="1"
     objecttolerance="10"
     gridtolerance="10"
     guidetolerance="10"
     inkscape:pageopacity="0"
     inkscape:pageshadow="2"
     inkscape:window-width="1920"
     inkscape:window-height="1029"
     id="namedview4"
     showgrid="false"
     inkscape:zoom="20.85965"
     inkscape:cx="20.787588"
     inkscape:cy="11.298981"
     inkscape:window-x="1080"
     inkscape:window-y="1107"
     inkscape:window-maximized="1"
     inkscape:current-layer="svg2"
     fit-margin-top="1"
     fit-margin-right="1"
     fit-margin-left="1"
     fit-margin-bottom="1" />
  <path
     style="fill:#1a1a1a;stroke-width:0.07065569"
     d="M 3.4315488,26.51844 C 3.1336239,26.33461 2.5351483,25.682499 2.2380268,25.218033 1.5640591,24.164458 1.1527923,22.718204 1.0236443,20.947608 0.97721998,20.311283 0.98111572,20.287747 1.2041876,19.852438 1.5389741,19.199129 2.657497,17.536072 3.3194448,16.707376 4.9224622,14.70058 6.8801019,12.808547 9.2253215,10.99944 10.524682,9.9970978 10.95742,9.7232798 12.475484,8.9428122 16.497913,6.8748417 20.216603,5.7186176 23.792153,5.4242245 c 0.492539,-0.040581 0.521449,-0.033682 1.059835,0.2508501 0.907027,0.4794202 1.682377,1.0237486 2.325849,1.6328439 0.915236,0.8663364 1.512562,1.787416 1.750802,2.6997305 0.09198,0.352261 0.09382,0.452535 0.01258,0.688309 -0.211497,0.613884 -0.789332,1.221519 -1.769362,1.860623 -0.712454,0.464609 -1.011533,0.61425 -2.374009,1.187756 -2.176471,0.916149 -2.4839,0.970892 -3.280438,0.584159 -0.983974,-0.477736 -1.480604,-1.260821 -1.797531,-2.834357 -0.143513,-0.712515 -0.216693,-0.756992 -1.309326,-0.795624 -0.656285,-0.02313 -0.882249,-3.66e-4 -1.452289,0.146902 -1.731787,0.44728 -4.582452,2.072454 -6.658038,3.795773 -1.1685038,0.970203 -1.9053797,1.962218 -2.1985953,2.959873 -0.1818825,0.618835 -0.170804,0.647363 0.4296701,1.107304 0.6474706,0.495916 1.2189276,1.166247 1.5274742,1.791779 0.195437,0.396209 0.224549,0.527082 0.220037,0.989174 -0.0059,0.612402 -0.09819,0.837259 -0.5732305,1.397841 -0.4568043,0.539053 -2.1772156,2.090817 -2.860174,2.579794 -1.4112718,1.010438 -2.7915582,1.435581 -3.4138607,1.051526 z"
     id="path4486"
     inkscape:connector-curvature="0" />
</svg>
