<?xml version="1.0" encoding="UTF-8" standalone="no"?>
<!-- Created with Inkscape (http://www.inkscape.org/) -->

<svg
   xmlns:osb="http://www.openswatchbook.org/uri/2009/osb"
   xmlns:dc="http://purl.org/dc/elements/1.1/"
   xmlns:cc="http://creativecommons.org/ns#"
   xmlns:rdf="http://www.w3.org/1999/02/22-rdf-syntax-ns#"
   xmlns:svg="http://www.w3.org/2000/svg"
   xmlns="http://www.w3.org/2000/svg"
   xmlns:sodipodi="http://sodipodi.sourceforge.net/DTD/sodipodi-0.dtd"
   xmlns:inkscape="http://www.inkscape.org/namespaces/inkscape"
   id="svg2"
   version="1.1"
   inkscape:version="0.92.0 r15299"
   width="395.21152"
   height="173.92567"
   sodipodi:docname="pre.svg">
  <metadata
     id="metadata8">
    <rdf:RDF>
      <cc:Work
         rdf:about="">
        <dc:format>image/svg+xml</dc:format>
        <dc:type
           rdf:resource="http://purl.org/dc/dcmitype/StillImage" />
        <dc:title />
      </cc:Work>
    </rdf:RDF>
  </metadata>
  <defs
     id="defs6">
    <linearGradient
       id="linearGradient5286"
       osb:paint="solid">
      <stop
         style="stop-color:#101010;stop-opacity:1;"
         offset="0"
         id="stop5288" />
    </linearGradient>
    <linearGradient
       id="linearGradient5268"
       osb:paint="solid">
      <stop
         style="stop-color:#000000;stop-opacity:1;"
         offset="0"
         id="stop5270" />
    </linearGradient>
    <linearGradient
       id="linearGradient3783">
      <stop
         id="stop3785"
         offset="0"
         style="stop-color:#ffffff;stop-opacity:1;" />
      <stop
         id="stop3787"
         offset="1"
         style="stop-color:#ffffff;stop-opacity:0;" />
    </linearGradient>
    <linearGradient
       id="linearGradient3773">
      <stop
         style="stop-color:#ffffff;stop-opacity:1;"
         offset="0"
         id="stop3775" />
      <stop
         style="stop-color:#ffffff;stop-opacity:0;"
         offset="1"
         id="stop3777" />
    </linearGradient>
  </defs>
  <sodipodi:namedview
     pagecolor="#aaaaaa"
     bordercolor="#666666"
     borderopacity="1"
     objecttolerance="10"
     gridtolerance="10"
     guidetolerance="10"
     inkscape:pageopacity="0"
     inkscape:pageshadow="2"
     inkscape:window-width="1920"
     inkscape:window-height="1050"
     id="namedview4"
     showgrid="false"
     inkscape:zoom="2.6222305"
     inkscape:cx="55.865644"
     inkscape:cy="92.176401"
     inkscape:window-x="1920"
     inkscape:window-y="0"
     inkscape:window-maximized="1"
     inkscape:current-layer="text3246"
     fit-margin-top="2"
     fit-margin-left="2"
     fit-margin-right="2"
     fit-margin-bottom="2" />
  <g
     id="text3032"
     style="font-style:normal;font-weight:normal;font-size:84.71973419px;line-height:125%;font-family:Sans;letter-spacing:0px;word-spacing:0px;fill:#ff0000;fill-opacity:1;stroke:#ffffff;stroke-width:1.02235174;stroke-opacity:1"
     transform="matrix(0.82341272,-0.61713409,0.61713409,0.82341272,-154.74109,-261.37683)">
    <g
       id="text3050"
       style="font-style:normal;font-variant:normal;font-weight:normal;font-stretch:normal;font-size:85.83197021px;line-height:125%;font-family:Abel;-inkscape-font-specification:Abel;letter-spacing:0px;word-spacing:0px;fill:#ff0000;fill-opacity:1;stroke:#ffffff;stroke-opacity:1"
       transform="matrix(0.90764594,-0.0847774,0.0847774,0.90764594,0.7842394,34.781756)">
      <g
         transform="matrix(4.3553012,3.947359,-3.947359,4.3553012,526.98604,-1480.8701)"
         style="font-size:40px;font-family:Abel;-inkscape-font-specification:Abel;fill:#ff0000;stroke:#ffffff;stroke-opacity:1"
         id="text3246">
        <path
           inkscape:connector-curvature="0"
           id="path3031"
           style="font-style:normal;font-variant:normal;font-weight:normal;font-stretch:normal;font-size:30.307024px;line-height:125%;font-family:abel;-inkscape-font-specification:abel;letter-spacing:0px;word-spacing:0px;fill:#ffffff;fill-opacity:0.86274511;stroke:#000000;stroke-width:0.38691029;stroke-miterlimit:4;stroke-dasharray:none;stroke-opacity:1"
           d="m 157.8672,301.81123 c -1e-5,0.76822 -0.14734,1.48906 -0.44197,2.16254 -0.28414,0.67349 -0.67877,1.2628 -1.18388,1.7679 -0.50513,0.50514 -1.09969,0.90502 -1.78369,1.19966 -0.6735,0.28414 -1.39434,0.4262 -2.16252,0.42619 h -5.13011 v 8.69748 h -2.03625 v -22.63555 h 7.16636 c 0.76818,2e-5 1.48902,0.14735 2.16252,0.44197 0.684,0.28415 1.27856,0.67878 1.78369,1.18388 0.50511,0.50513 0.89974,1.0997 1.18388,1.78369 0.29463,0.67351 0.44196,1.39435 0.44197,2.16254 v 2.8097 0 m -2.03625,-2.8097 c -2e-5,-0.50511 -0.0947,-0.97339 -0.28412,-1.40487 -0.18944,-0.44195 -0.45253,-0.82606 -0.78925,-1.1523 -0.32624,-0.33672 -0.71034,-0.59981 -1.1523,-0.78923 -0.43147,-0.18941 -0.89975,-0.28412 -1.40486,-0.28414 h -5.03539 v 10.05498 h 5.03539 c 0.50511,10e-6 0.97339,-0.0947 1.40486,-0.28412 0.44196,-0.18941 0.82606,-0.44723 1.1523,-0.77346 0.33672,-0.32621 0.59981,-0.70505 0.78925,-1.13652 0.18939,-0.44196 0.2841,-0.91551 0.28412,-1.42064 v -2.8097" />
        <path
           inkscape:connector-curvature="0"
           id="path3033"
           style="font-style:normal;font-variant:normal;font-weight:normal;font-stretch:normal;font-size:30.307024px;line-height:125%;font-family:abel;-inkscape-font-specification:abel;letter-spacing:0px;word-spacing:0px;fill:#ffffff;fill-opacity:0.86274511;stroke:#000000;stroke-width:0.38691029;stroke-miterlimit:4;stroke-dasharray:none;stroke-opacity:1"
           d="m 165.83858,301.7481 c -0.38936,10e-6 -0.75768,0.0737 -1.10494,0.22099 -0.33675,0.14734 -0.6314,0.34727 -0.88395,0.59982 -0.25257,0.25257 -0.45252,0.55249 -0.59983,0.89974 -0.14733,0.33676 -0.221,0.69981 -0.221,1.08916 V 316.065 h -1.94153 v -16.16374 h 0.64718 l 1.05759,1.64163 c 0.44197,-0.59981 0.99444,-1.07335 1.65741,-1.42064 0.67349,-0.35778 1.40485,-0.53667 2.19411,-0.53669 h 1.13651 v 2.16254 h -1.94155" />
        <path
           inkscape:connector-curvature="0"
           id="path3035"
           style="font-style:normal;font-variant:normal;font-weight:normal;font-stretch:normal;font-size:30.307024px;line-height:125%;font-family:abel;-inkscape-font-specification:abel;letter-spacing:0px;word-spacing:0px;fill:#ffffff;fill-opacity:0.86274511;stroke:#000000;stroke-width:0.38691029;stroke-miterlimit:4;stroke-dasharray:none;stroke-opacity:1"
           d="m 170.36885,311.62945 c 1e-5,0.65245 0.1263,1.26805 0.37884,1.84683 0.24205,0.57878 0.5788,1.0839 1.01024,1.51536 0.43147,0.43144 0.93658,0.77346 1.51535,1.02601 0.57878,0.24204 1.1944,0.36305 1.84684,0.36305 h 1.29435 c 0.65245,0 1.26807,-0.12101 1.84684,-0.36305 0.57879,-0.25255 1.0839,-0.59457 1.51535,-1.02601 0.43146,-0.43146 0.77346,-0.93658 1.02602,-1.51536 0.24203,-0.57878 0.36306,-1.19438 0.36305,-1.84683 v -7.29263 c 1e-5,-0.65244 -0.12102,-1.26804 -0.36305,-1.84684 -0.25256,-0.57876 -0.59456,-1.08388 -1.02602,-1.51535 -0.43145,-0.43143 -0.93656,-0.76818 -1.51535,-1.01022 -0.57877,-0.25255 -1.19439,-0.37883 -1.84684,-0.37885 h -1.29435 c -0.65244,2e-5 -1.26806,0.1263 -1.84684,0.37885 -0.57877,0.24204 -1.08388,0.57879 -1.51535,1.01022 -0.43144,0.43147 -0.76819,0.93659 -1.01024,1.51535 -0.25254,0.5788 -0.37883,1.1944 -0.37884,1.84684 v 3.80416 h 8.85534 v 3.59897 c 0,0.38935 -0.0737,0.75767 -0.22099,1.10494 -0.14732,0.33674 -0.34726,0.6314 -0.59983,0.88395 -0.25255,0.25256 -0.5472,0.4525 -0.88396,0.59982 -0.34725,0.14733 -0.71557,0.22099 -1.10494,0.22099 h -1.29435 c -0.38936,0 -0.75241,-0.0737 -1.08917,-0.22099 -0.34726,-0.14732 -0.64716,-0.34726 -0.89974,-0.59982 -0.25254,-0.25255 -0.45249,-0.54721 -0.59982,-0.88395 -0.14732,-0.34727 -0.22098,-0.71559 -0.22099,-1.10494 v -1.07338 l -1.94155,0.31569 v 0.64719 0 m 1.94155,-7.40312 c 1e-5,-0.38935 0.0737,-0.75241 0.22099,-1.08917 0.14733,-0.34725 0.34728,-0.64717 0.59982,-0.89973 0.25258,-0.25254 0.55248,-0.45249 0.89974,-0.59983 0.33676,-0.14731 0.69981,-0.22097 1.08917,-0.22099 h 1.29435 c 0.38937,2e-5 0.75769,0.0737 1.10494,0.22099 0.33676,0.14734 0.63141,0.34729 0.88396,0.59983 0.25257,0.25256 0.45251,0.55248 0.59983,0.89973 0.14733,0.33676 0.22099,0.69982 0.22099,1.08917 v 2.3993 h -6.91379 v -2.3993" />
      </g>
    </g>
  </g>
</svg>
