<?xml version="1.0" encoding="UTF-8" standalone="no"?>
<!-- Created with Inkscape (http://www.inkscape.org/) -->

<svg
   xmlns:osb="http://www.openswatchbook.org/uri/2009/osb"
   xmlns:dc="http://purl.org/dc/elements/1.1/"
   xmlns:cc="http://creativecommons.org/ns#"
   xmlns:rdf="http://www.w3.org/1999/02/22-rdf-syntax-ns#"
   xmlns:svg="http://www.w3.org/2000/svg"
   xmlns="http://www.w3.org/2000/svg"
   xmlns:sodipodi="http://sodipodi.sourceforge.net/DTD/sodipodi-0.dtd"
   xmlns:inkscape="http://www.inkscape.org/namespaces/inkscape"
   id="svg2"
   version="1.1"
   inkscape:version="0.48.5 r10040"
   width="370.5108"
   height="163.05531"
   sodipodi:docname="alpha.svg">
  <metadata
     id="metadata8">
    <rdf:RDF>
      <cc:Work
         rdf:about="">
        <dc:format>image/svg+xml</dc:format>
        <dc:type
           rdf:resource="http://purl.org/dc/dcmitype/StillImage" />
        <dc:title></dc:title>
      </cc:Work>
    </rdf:RDF>
  </metadata>
  <defs
     id="defs6">
    <linearGradient
       id="linearGradient5286"
       osb:paint="solid">
      <stop
         style="stop-color:#101010;stop-opacity:1;"
         offset="0"
         id="stop5288" />
    </linearGradient>
    <linearGradient
       id="linearGradient5268"
       osb:paint="solid">
      <stop
         style="stop-color:#000000;stop-opacity:1;"
         offset="0"
         id="stop5270" />
    </linearGradient>
    <linearGradient
       id="linearGradient3783">
      <stop
         id="stop3785"
         offset="0"
         style="stop-color:#ffffff;stop-opacity:1;" />
      <stop
         id="stop3787"
         offset="1"
         style="stop-color:#ffffff;stop-opacity:0;" />
    </linearGradient>
    <linearGradient
       id="linearGradient3773">
      <stop
         style="stop-color:#ffffff;stop-opacity:1;"
         offset="0"
         id="stop3775" />
      <stop
         style="stop-color:#ffffff;stop-opacity:0;"
         offset="1"
         id="stop3777" />
    </linearGradient>
  </defs>
  <sodipodi:namedview
     pagecolor="#aaaaaa"
     bordercolor="#666666"
     borderopacity="1"
     objecttolerance="10"
     gridtolerance="10"
     guidetolerance="10"
     inkscape:pageopacity="0"
     inkscape:pageshadow="2"
     inkscape:window-width="1920"
     inkscape:window-height="1019"
     id="namedview4"
     showgrid="false"
     inkscape:zoom="2.6222305"
     inkscape:cx="128.51372"
     inkscape:cy="92.176401"
     inkscape:window-x="0"
     inkscape:window-y="27"
     inkscape:window-maximized="1"
     inkscape:current-layer="text3246"
     fit-margin-top="2"
     fit-margin-left="2"
     fit-margin-right="2"
     fit-margin-bottom="2" />
  <g
     id="text3032"
     style="font-size:84.71973419px;font-style:normal;font-weight:normal;line-height:125%;letter-spacing:0px;word-spacing:0px;fill:#ff0000;fill-opacity:1;stroke:#ffffff;stroke-width:1.02235174;stroke-opacity:1;font-family:Sans"
     transform="matrix(0.82341272,-0.61713409,0.61713409,0.82341272,-145.06977,-245.04078)">
    <g
       id="text3050"
       style="font-size:85.83197021px;font-style:normal;font-variant:normal;font-weight:normal;font-stretch:normal;line-height:125%;letter-spacing:0px;word-spacing:0px;fill:#ff0000;fill-opacity:1;stroke:#ffffff;stroke-opacity:1;font-family:Abel;-inkscape-font-specification:Abel"
       transform="matrix(0.90764594,-0.0847774,0.0847774,0.90764594,0.73522444,32.607896)">
      <g
         transform="matrix(4.3553012,3.947359,-3.947359,4.3553012,494.04941,-1388.3157)"
         style="font-size:40px;fill:#ff0000;stroke:#ffffff;stroke-opacity:1;font-family:Abel;-inkscape-font-specification:Abel"
         id="text3246">
        <path
           inkscape:connector-curvature="0"
           id="path3031"
           style="font-size:30.30702399999999841px;font-style:normal;font-variant:normal;font-weight:normal;font-stretch:normal;line-height:125%;letter-spacing:0px;word-spacing:0px;fill:none;fill-opacity:1;stroke:#000000;font-family:abel;-inkscape-font-specification:abel;stroke-opacity:1;stroke-width:0.3627284;stroke-miterlimit:4;stroke-dasharray:none"
           d="m 148.0005,282.94803 c -10e-6,0.7202 -0.13813,1.39599 -0.41435,2.02738 -0.26638,0.6314 -0.63634,1.18387 -1.10988,1.65741 -0.47356,0.47356 -1.03096,0.84845 -1.67221,1.12468 -0.63141,0.26638 -1.3072,0.39956 -2.02737,0.39955 l -4.80947,0 0,8.15389 -1.90899,0 0,-21.22083 6.71846,0 c 0.72017,2e-5 1.39596,0.13814 2.02737,0.41435 0.64125,0.26639 1.19865,0.63635 1.67221,1.10988 0.47354,0.47356 0.8435,1.03097 1.10988,1.67221 0.27622,0.63142 0.41434,1.30721 0.41435,2.02738 l 0,2.6341 0,0 m -1.90898,-2.6341 c -2e-5,-0.47354 -0.0888,-0.91255 -0.26637,-1.31706 -0.1776,-0.41433 -0.42424,-0.77443 -0.73992,-1.08028 -0.30585,-0.31568 -0.66594,-0.56232 -1.08028,-0.73991 -0.4045,-0.17757 -0.84352,-0.26636 -1.31706,-0.26638 l -4.72067,0 0,9.42655 4.72067,0 c 0.47354,10e-6 0.91256,-0.0888 1.31706,-0.26637 0.41434,-0.17757 0.77443,-0.41927 1.08028,-0.72511 0.31568,-0.30583 0.56232,-0.66099 0.73992,-1.06549 0.17756,-0.41434 0.26635,-0.85829 0.26637,-1.33185 l 0,-2.6341" />
        <path
           inkscape:connector-curvature="0"
           id="path3033"
           style="font-size:30.30702399999999841px;font-style:normal;font-variant:normal;font-weight:normal;font-stretch:normal;line-height:125%;letter-spacing:0px;word-spacing:0px;fill:none;fill-opacity:1;stroke:#000000;font-family:abel;-inkscape-font-specification:abel;stroke-opacity:1;stroke-width:0.3627284;stroke-miterlimit:4;stroke-dasharray:none"
           d="m 155.47367,282.88884 c -0.36503,10e-6 -0.71033,0.0691 -1.03588,0.20718 -0.31571,0.13813 -0.59194,0.32557 -0.82871,0.56233 -0.23678,0.23679 -0.42423,0.51796 -0.56234,0.84351 -0.13812,0.31571 -0.20718,0.65607 -0.20718,1.02109 l 0,10.78799 -1.82019,0 0,-15.15351 0.60673,0 0.99149,1.53903 c 0.41435,-0.56232 0.93229,-1.00627 1.55383,-1.33185 0.63139,-0.33542 1.31704,-0.50313 2.05697,-0.50315 l 1.06548,0 0,2.02738 -1.8202,0" />
        <path
           inkscape:connector-curvature="0"
           id="path3035"
           style="font-size:30.30702399999999841px;font-style:normal;font-variant:normal;font-weight:normal;font-stretch:normal;line-height:125%;letter-spacing:0px;word-spacing:0px;fill:none;fill-opacity:1;stroke:#000000;font-family:abel;-inkscape-font-specification:abel;stroke-opacity:1;stroke-width:0.3627284;stroke-miterlimit:4;stroke-dasharray:none"
           d="m 159.7208,292.15261 c 1e-5,0.61167 0.1184,1.1888 0.35516,1.7314 0.22692,0.54261 0.54262,1.01616 0.9471,1.42065 0.4045,0.40448 0.87804,0.72512 1.42064,0.96189 0.54261,0.22691 1.11975,0.34036 1.73141,0.34036 l 1.21346,0 c 0.61167,0 1.18881,-0.11345 1.73141,-0.34036 0.54261,-0.23677 1.01615,-0.55741 1.42064,-0.96189 0.40449,-0.40449 0.72512,-0.87804 0.96189,-1.42065 0.22691,-0.5426 0.34037,-1.11973 0.34036,-1.7314 l 0,-6.83684 c 1e-5,-0.61166 -0.11345,-1.18879 -0.34036,-1.73141 -0.23677,-0.54259 -0.5574,-1.01614 -0.96189,-1.42064 -0.40449,-0.40447 -0.87803,-0.72017 -1.42064,-0.94709 -0.5426,-0.23676 -1.11974,-0.35515 -1.73141,-0.35517 l -1.21346,0 c -0.61166,2e-5 -1.1888,0.11841 -1.73141,0.35517 -0.5426,0.22692 -1.01614,0.54262 -1.42064,0.94709 -0.40448,0.4045 -0.72018,0.87805 -0.9471,1.42064 -0.23676,0.54262 -0.35515,1.11975 -0.35516,1.73141 l 0,3.5664 8.30188,0 0,3.37403 c 0,0.36502 -0.0691,0.71032 -0.20718,1.03588 -0.13811,0.3157 -0.32556,0.59194 -0.56234,0.82871 -0.23677,0.23677 -0.513,0.42422 -0.82871,0.56233 -0.32555,0.13812 -0.67085,0.20718 -1.03588,0.20718 l -1.21346,0 c -0.36502,0 -0.70538,-0.0691 -1.02109,-0.20718 -0.32556,-0.13811 -0.60672,-0.32556 -0.84351,-0.56233 -0.23676,-0.23677 -0.42421,-0.51301 -0.56233,-0.82871 -0.13811,-0.32556 -0.20717,-0.67086 -0.20718,-1.03588 l 0,-1.00629 -1.8202,0.29596 0,0.60674 0,0 m 1.8202,-6.94043 c 1e-5,-0.36501 0.0691,-0.70538 0.20718,-1.02109 0.13812,-0.32555 0.32557,-0.60672 0.56233,-0.8435 0.23679,-0.23676 0.51795,-0.42421 0.84351,-0.56234 0.31571,-0.1381 0.65607,-0.20716 1.02109,-0.20718 l 1.21346,0 c 0.36503,2e-5 0.71033,0.0691 1.03588,0.20718 0.31571,0.13813 0.59194,0.32558 0.82871,0.56234 0.23678,0.23678 0.42423,0.51795 0.56234,0.8435 0.13812,0.31571 0.20718,0.65608 0.20718,1.02109 l 0,2.24935 -6.48168,0 0,-2.24935" />
      </g>
    </g>
  </g>
</svg>
