<?xml version="1.0" encoding="UTF-8"?>
<svg xmlns="http://www.w3.org/2000/svg" xmlns:xlink="http://www.w3.org/1999/xlink" width="500" zoomAndPan="magnify" viewBox="0 0 375 374.999991" height="500" preserveAspectRatio="xMidYMid meet" version="1.0">
  <defs>
    <g></g>
    <clipPath id="id1">
      <path d="M 18.394531 18.394531 L 356.644531 18.394531 L 356.644531 356.644531 L 18.394531 356.644531 Z M 18.394531 18.394531 " clip-rule="nonzero"></path>
    </clipPath>
    <clipPath id="id2">
      <path d="M 116 181 L 293 181 L 293 320.347656 L 116 320.347656 Z M 116 181 " clip-rule="nonzero"></path>
    </clipPath>
    <clipPath id="id3">
      <path d="M 91 111 L 309.832031 111 L 309.832031 274 L 91 274 Z M 91 111 " clip-rule="nonzero"></path>
    </clipPath>
  </defs>
  <g clip-path="url(#id1)">
    <path fill="#ffffff" d="M 187.519531 18.394531 C 94.113281 18.394531 18.394531 94.113281 18.394531 187.519531 C 18.394531 280.925781 94.113281 356.644531 187.519531 356.644531 C 280.925781 356.644531 356.644531 280.925781 356.644531 187.519531 C 356.644531 94.113281 280.925781 18.394531 187.519531 18.394531 " fill-opacity="1" fill-rule="nonzero"></path>
  </g>
  <g fill="#c2021c" fill-opacity="1">
    <g transform="translate(122.37722, 158.258935)">
      <g>
        <path d="M 22.8125 -25.257812 C 15.339844 -26.25 8.660156 -27.703125 8.660156 -33.523438 C 8.660156 -36.894531 10.976562 -42.84375 20.5625 -43.109375 L 20.5625 -47.011719 C 8.066406 -46.878906 4.429688 -38.148438 4.429688 -33.390625 C 4.429688 -24.792969 12.960938 -22.679688 20.167969 -21.6875 C 29.222656 -20.363281 34.316406 -18.445312 34.316406 -12.695312 C 34.316406 -5.621094 28.101562 -3.238281 21.621094 -3.109375 L 21.621094 0.726562 C 33.191406 0.792969 38.546875 -5.949219 38.546875 -12.828125 C 38.546875 -21.421875 31.40625 -24.066406 22.8125 -25.257812 Z M 3.96875 -4.363281 C 8.660156 -1.125 14.214844 0.527344 20.363281 0.726562 L 20.363281 -3.109375 C 15.605469 -3.238281 10.050781 -4.957031 6.082031 -7.667969 C 5.820312 -7.867188 5.621094 -7.933594 5.421875 -7.933594 C 5.15625 -7.933594 5.023438 -7.734375 4.761719 -7.40625 L 3.703125 -5.6875 C 3.371094 -5.023438 3.371094 -4.761719 3.96875 -4.363281 Z M 21.820312 -43.175781 C 26.644531 -43.109375 31.207031 -41.324219 35.242188 -38.613281 C 35.503906 -38.480469 35.636719 -38.414062 35.835938 -38.414062 C 36.167969 -38.414062 36.363281 -38.613281 36.5625 -39.007812 L 37.554688 -40.664062 C 37.820312 -41.257812 37.886719 -41.589844 37.289062 -41.984375 C 32.664062 -44.828125 28.234375 -46.8125 21.820312 -47.011719 Z M 21.820312 -43.175781 "></path>
      </g>
    </g>
  </g>
  <g fill="#c2021c" fill-opacity="1">
    <g transform="translate(164.555852, 158.258935)">
      <g>
        <path d="M 22.8125 -25.257812 C 15.339844 -26.25 8.660156 -27.703125 8.660156 -33.523438 C 8.660156 -36.894531 10.976562 -42.84375 20.5625 -43.109375 L 20.5625 -47.011719 C 8.066406 -46.878906 4.429688 -38.148438 4.429688 -33.390625 C 4.429688 -24.792969 12.960938 -22.679688 20.167969 -21.6875 C 29.222656 -20.363281 34.316406 -18.445312 34.316406 -12.695312 C 34.316406 -5.621094 28.101562 -3.238281 21.621094 -3.109375 L 21.621094 0.726562 C 33.191406 0.792969 38.546875 -5.949219 38.546875 -12.828125 C 38.546875 -21.421875 31.40625 -24.066406 22.8125 -25.257812 Z M 3.96875 -4.363281 C 8.660156 -1.125 14.214844 0.527344 20.363281 0.726562 L 20.363281 -3.109375 C 15.605469 -3.238281 10.050781 -4.957031 6.082031 -7.667969 C 5.820312 -7.867188 5.621094 -7.933594 5.421875 -7.933594 C 5.15625 -7.933594 5.023438 -7.734375 4.761719 -7.40625 L 3.703125 -5.6875 C 3.371094 -5.023438 3.371094 -4.761719 3.96875 -4.363281 Z M 21.820312 -43.175781 C 26.644531 -43.109375 31.207031 -41.324219 35.242188 -38.613281 C 35.503906 -38.480469 35.636719 -38.414062 35.835938 -38.414062 C 36.167969 -38.414062 36.363281 -38.613281 36.5625 -39.007812 L 37.554688 -40.664062 C 37.820312 -41.257812 37.886719 -41.589844 37.289062 -41.984375 C 32.664062 -44.828125 28.234375 -46.8125 21.820312 -47.011719 Z M 21.820312 -43.175781 "></path>
      </g>
    </g>
  </g>
  <g fill="#c2021c" fill-opacity="1">
    <g transform="translate(206.734483, 158.258935)">
      <g>
        <path d="M 42.050781 0 C 42.777344 0 42.976562 -0.199219 42.976562 -0.925781 L 42.976562 -25.191406 L 12.695312 -25.191406 L 12.695312 -21.289062 L 38.679688 -21.289062 L 38.679688 -0.925781 C 38.679688 -0.199219 38.878906 0 39.605469 0 Z M 10.511719 0 C 11.238281 0 11.4375 -0.199219 11.4375 -0.925781 L 11.4375 -45.355469 C 11.4375 -46.085938 11.238281 -46.28125 10.511719 -46.28125 L 8.066406 -46.28125 C 7.339844 -46.28125 7.140625 -46.085938 7.140625 -45.355469 L 7.140625 -0.925781 C 7.140625 -0.199219 7.339844 0 8.066406 0 Z M 39.605469 -46.28125 C 38.878906 -46.28125 38.679688 -46.085938 38.679688 -45.355469 L 38.679688 -26.445312 L 42.976562 -26.445312 L 42.976562 -45.355469 C 42.976562 -46.085938 42.777344 -46.28125 42.050781 -46.28125 Z M 39.605469 -46.28125 "></path>
      </g>
    </g>
  </g>
  <path fill="#100f0d" d="M 296.800781 111.972656 C 298.320312 112.0625 299.804688 112.40625 301.199219 112.953125 C 301.117188 97.125 299.6875 87.324219 299.6875 87.324219 C 266.402344 64.453125 219.640625 57.707031 197.664062 55.738281 L 197.664062 62.984375 C 218.617188 64.929688 261.628906 71.277344 292.914062 91.464844 C 293.515625 97.4375 294.5625 111.617188 293.421875 130.375 C 293.300781 132.324219 293.152344 134.332031 292.988281 136.382812 L 292.90625 137.179688 L 292.355469 141.949219 C 294.085938 141.257812 295.765625 140.5 297.367188 139.652344 C 297.015625 139.589844 296.65625 139.527344 296.28125 139.445312 L 296.800781 111.972656 " fill-opacity="1" fill-rule="nonzero"></path>
  <g clip-path="url(#id2)">
    <path fill="#100f0d" d="M 283.636719 187.488281 C 277.195312 209.527344 266.941406 232.726562 250.804688 254.21875 C 250.503906 254.613281 221.652344 292.5625 185.328125 312.230469 C 160.058594 298.535156 138.402344 275.980469 127.476562 263.410156 C 123.3125 258.628906 120.703125 255.285156 120.050781 254.4375 C 118.753906 256.039062 117.636719 257.644531 116.765625 259.207031 C 120.101562 257.261719 125.890625 266.546875 125.890625 266.546875 L 131.320312 270.617188 C 130.160156 272.046875 128.554688 272.988281 126.792969 273.484375 C 139.550781 287.460938 160.835938 307.976562 185.328125 320.347656 C 225.183594 300.242188 256.554688 258.546875 256.554688 258.546875 C 272.605469 237.167969 283.054688 214.289062 289.757812 192.425781 C 290.089844 191.382812 290.410156 190.324219 290.710938 189.269531 C 290.980469 188.316406 291.257812 187.375 291.515625 186.433594 C 291.941406 184.902344 292.316406 183.398438 292.707031 181.898438 C 290.066406 182.953125 287.292969 183.8125 284.464844 184.558594 C 284.183594 185.53125 283.925781 186.503906 283.636719 187.488281 " fill-opacity="1" fill-rule="nonzero"></path>
  </g>
  <path fill="#100f0d" d="M 82.671875 170.386719 C 74.5625 132.800781 76.757812 101.203125 77.753906 91.464844 C 109.082031 71.246094 152.054688 64.921875 173.003906 62.984375 L 173.003906 55.75 C 151.027344 57.707031 104.277344 64.453125 71 87.324219 C 71 87.324219 65.53125 124.332031 75.296875 170.65625 C 76.996094 178.691406 79.152344 187.011719 81.875 195.46875 C 85.46875 206.640625 90.058594 218.039062 95.878906 229.34375 C 97.277344 227.3125 98.964844 225.253906 100.847656 223.195312 C 96.261719 213.917969 92.511719 204.570312 89.464844 195.367188 C 86.648438 186.867188 84.421875 178.492188 82.671875 170.386719 " fill-opacity="1" fill-rule="nonzero"></path>
  <g clip-path="url(#id3)">
    <path fill="#100f0d" d="M 299.792969 170.769531 C 292.792969 177.1875 280.734375 179.476562 270.109375 181.496094 C 267.957031 181.910156 265.851562 182.304688 263.84375 182.726562 C 250.578125 185.5 234.867188 188.949219 218.9375 193.503906 C 192.929688 200.957031 171.335938 209.878906 152.921875 220.769531 C 147.039062 224.238281 120 240.792969 111.382812 256.546875 L 110.585938 255.710938 L 110.644531 255.699219 C 110.644531 255.699219 110.636719 255.636719 110.617188 255.511719 C 110.574219 255.398438 110.574219 255.128906 110.59375 254.777344 C 110.65625 254.03125 110.925781 252.789062 111.496094 251.277344 C 111.765625 250.535156 112.105469 249.707031 112.511719 248.855469 C 112.894531 247.996094 113.371094 247.128906 113.855469 246.257812 C 114.386719 245.398438 114.964844 244.5 115.617188 243.617188 C 116.25 242.726562 116.972656 241.847656 117.679688 240.96875 C 120.566406 237.480469 123.789062 234.207031 126.253906 231.804688 C 128.71875 229.40625 130.4375 227.871094 130.4375 227.871094 C 130.4375 227.871094 128.542969 229.167969 125.777344 231.246094 C 123.011719 233.316406 119.378906 236.164062 115.960938 239.351562 C 115.109375 240.160156 114.261719 240.957031 113.464844 241.816406 C 112.65625 242.65625 111.898438 243.546875 111.183594 244.445312 C 110.480469 245.367188 109.859375 246.257812 109.339844 247.160156 C 108.804688 248.039062 108.335938 248.898438 107.921875 249.726562 C 107.550781 250.480469 107.238281 251.195312 106.980469 251.878906 L 106.328125 251.195312 C 106.308594 251.070312 106.308594 250.832031 106.328125 250.503906 C 106.378906 249.765625 106.648438 248.515625 107.21875 247.011719 C 107.496094 246.257812 107.839844 246.429688 108.234375 244.582031 C 108.625 243.730469 109.09375 242.851562 109.589844 241.992188 C 110.109375 241.125 110.6875 240.234375 111.351562 239.34375 C 111.984375 238.453125 112.695312 237.582031 113.402344 236.691406 C 116.289062 233.203125 119.511719 229.933594 121.976562 227.53125 C 124.453125 225.128906 126.171875 223.597656 126.171875 223.597656 C 126.171875 223.597656 124.265625 224.890625 121.5 226.972656 C 118.734375 229.042969 115.101562 231.890625 111.683594 235.078125 C 110.84375 235.894531 109.984375 236.691406 109.195312 237.550781 C 108.378906 238.390625 107.621094 239.269531 106.917969 240.171875 C 106.203125 241.09375 105.59375 241.992188 105.0625 242.882812 C 104.535156 243.761719 104.058594 244.621094 103.65625 245.449219 C 103.304688 246.132812 103.023438 246.796875 102.773438 247.425781 L 101.78125 246.382812 C 101.792969 246.269531 101.792969 246.144531 101.800781 246 C 101.851562 245.253906 102.121094 244.011719 102.691406 242.5 C 102.972656 241.753906 103.3125 240.925781 103.707031 240.078125 C 104.089844 239.21875 104.566406 238.347656 105.0625 237.480469 C 105.582031 236.621094 106.160156 235.71875 106.824219 234.839844 C 107.457031 233.949219 108.171875 233.078125 108.875 232.1875 C 111.773438 228.699219 114.996094 225.429688 117.460938 223.027344 C 119.925781 220.625 121.644531 219.09375 121.644531 219.09375 C 121.644531 219.09375 119.738281 220.386719 116.972656 222.46875 C 114.210938 224.539062 110.574219 227.386719 107.15625 230.574219 C 106.316406 231.382812 105.457031 232.1875 104.671875 233.046875 C 103.851562 233.875 103.097656 234.765625 102.390625 235.667969 C 101.6875 236.589844 101.066406 237.480469 100.539062 238.378906 C 100.011719 239.261719 99.535156 240.117188 99.121094 240.949219 C 98.808594 241.570312 98.550781 242.167969 98.320312 242.75 C 97.585938 241.835938 97.453125 240.988281 97.546875 240.046875 C 98.382812 230.367188 120.371094 211.980469 141.65625 198.835938 C 161.519531 186.558594 184.945312 176.464844 213.273438 167.984375 C 230.753906 162.746094 248.277344 158.730469 263.109375 155.480469 C 265.304688 155.003906 267.59375 154.550781 269.945312 154.082031 C 280.703125 151.949219 292.585938 149.601562 302.308594 143.792969 L 302.082031 147.664062 C 301.261719 148.152344 300.15625 148.8125 298.820312 149.609375 C 298.644531 149.714844 298.46875 149.828125 298.28125 149.933594 L 298.144531 150.015625 L 298.082031 150.054688 C 298.050781 150.066406 298.28125 149.964844 298.175781 150.015625 L 298.167969 150.015625 L 298.144531 150.023438 L 298.113281 150.046875 L 297.824219 150.179688 C 297.441406 150.367188 297.046875 150.5625 296.632812 150.769531 C 295.816406 151.175781 294.925781 151.546875 294.011719 151.972656 C 292.148438 152.746094 290.152344 153.554688 288.109375 154.28125 C 279.9375 157.21875 271.414062 159.25 271.414062 159.25 C 271.414062 159.25 280.113281 158.335938 288.730469 156.441406 C 290.886719 155.976562 293.03125 155.417969 295.039062 154.871094 C 296.042969 154.558594 297.007812 154.300781 297.929688 153.980469 C 298.382812 153.824219 298.828125 153.667969 299.265625 153.523438 L 299.585938 153.421875 L 299.988281 153.246094 C 300.1875 153.152344 300.382812 153.070312 300.570312 152.984375 C 300.992188 152.800781 301.398438 152.625 301.78125 152.457031 L 301.617188 155.140625 C 300.871094 155.59375 299.917969 156.164062 298.820312 156.816406 C 298.644531 156.929688 298.46875 157.035156 298.28125 157.136719 L 298.144531 157.230469 L 298.082031 157.269531 C 298.050781 157.28125 298.28125 157.167969 298.175781 157.21875 L 298.167969 157.21875 L 298.144531 157.230469 L 298.113281 157.25 L 297.824219 157.394531 C 297.441406 157.582031 297.046875 157.777344 296.632812 157.976562 C 295.816406 158.378906 294.925781 158.761719 294.011719 159.175781 C 292.148438 159.953125 290.152344 160.761719 288.109375 161.472656 C 279.9375 164.425781 271.414062 166.453125 271.414062 166.453125 C 271.414062 166.453125 280.113281 165.554688 288.730469 163.636719 C 290.886719 163.191406 293.03125 162.625 295.039062 162.074219 C 296.042969 161.765625 297.007812 161.496094 297.929688 161.183594 C 298.382812 161.027344 298.828125 160.882812 299.265625 160.730469 L 299.585938 160.625 L 299.988281 160.449219 C 300.1875 160.367188 300.382812 160.273438 300.570312 160.199219 C 300.828125 160.085938 301.085938 159.972656 301.335938 159.859375 L 301.160156 162.707031 C 300.488281 163.109375 299.710938 163.585938 298.820312 164.113281 C 298.644531 164.21875 298.46875 164.320312 298.28125 164.433594 L 298.144531 164.519531 L 298.082031 164.558594 C 298.050781 164.570312 298.28125 164.464844 298.175781 164.507812 L 298.167969 164.519531 L 298.144531 164.527344 L 298.113281 164.539062 L 297.824219 164.683594 C 297.441406 164.871094 297.046875 165.066406 296.632812 165.261719 C 295.816406 165.675781 294.925781 166.050781 294.011719 166.464844 C 292.148438 167.242188 290.152344 168.046875 288.109375 168.773438 C 279.9375 171.722656 271.414062 173.742188 271.414062 173.742188 C 271.414062 173.742188 280.113281 172.839844 288.730469 170.9375 C 290.886719 170.480469 293.03125 169.921875 295.039062 169.371094 C 296.042969 169.0625 297.007812 168.792969 297.929688 168.484375 C 298.382812 168.328125 298.828125 168.171875 299.265625 168.027344 L 299.585938 167.914062 L 299.988281 167.738281 C 300.1875 167.65625 300.382812 167.570312 300.570312 167.488281 C 300.671875 167.4375 300.777344 167.394531 300.878906 167.355469 L 300.746094 169.476562 C 300.507812 169.972656 300.175781 170.417969 299.792969 170.769531 Z M 308.894531 120.800781 C 307.1875 115.574219 302.164062 112.28125 296.800781 111.972656 L 296.28125 139.445312 C 296.65625 139.527344 297.015625 139.589844 297.367188 139.652344 C 286.648438 145.347656 272.96875 147.1875 261.824219 149.621094 C 244.941406 153.304688 228.113281 157.269531 211.542969 162.230469 C 186.125 169.839844 161.113281 179.746094 138.496094 193.722656 C 128.292969 200.027344 77.96875 232.769531 94.996094 247.945312 L 115.84375 270.027344 C 116.28125 270.65625 116.820312 271.257812 117.492188 271.828125 C 121.582031 274.933594 128.128906 274.550781 131.320312 270.617188 L 125.890625 266.546875 C 125.890625 266.546875 120.101562 257.261719 116.765625 259.207031 C 124.152344 245.863281 149.328125 229.859375 155.976562 225.9375 C 175.976562 214.105469 198.121094 205.71875 220.582031 199.28125 C 235.25 195.085938 250.140625 191.722656 265.078125 188.605469 C 277.722656 185.957031 294.074219 184.175781 303.832031 175.210938 C 305.167969 174 306.132812 172.449219 306.691406 170.769531 L 307.023438 165.355469 L 309.414062 126.039062 C 309.425781 125.863281 309.433594 125.769531 309.433594 125.769531 C 309.578125 124.101562 309.425781 122.40625 308.894531 120.800781 " fill-opacity="1" fill-rule="nonzero"></path>
  </g>
  <path fill="#100f0d" d="M 214.390625 275.773438 L 217.382812 277.789062 L 220.730469 276.464844 L 219.746094 279.921875 L 222.042969 282.707031 L 218.441406 282.832031 L 216.503906 285.875 L 215.261719 282.488281 L 211.769531 281.589844 L 214.609375 279.363281 L 214.390625 275.773438 " fill-opacity="1" fill-rule="nonzero"></path>
  <path fill="#100f0d" d="M 223.949219 265.636719 L 226.941406 267.644531 L 230.296875 266.332031 L 229.304688 269.789062 L 231.601562 272.574219 L 228 272.707031 L 226.0625 275.742188 L 224.832031 272.355469 L 221.339844 271.453125 L 224.175781 269.238281 L 223.949219 265.636719 " fill-opacity="1" fill-rule="nonzero"></path>
  <path fill="#100f0d" d="M 233.175781 255.855469 L 236.171875 257.863281 L 239.527344 256.539062 L 238.53125 260.003906 L 240.832031 262.789062 L 237.226562 262.914062 L 235.289062 265.957031 L 234.058594 262.574219 L 230.566406 261.671875 L 233.40625 259.445312 L 233.175781 255.855469 " fill-opacity="1" fill-rule="nonzero"></path>
  <path fill="#100f0d" d="M 186.988281 278.152344 L 191.140625 286.570312 L 200.429688 287.914062 L 193.707031 294.46875 L 195.292969 303.722656 L 186.988281 299.355469 L 178.667969 303.722656 L 180.265625 294.46875 L 173.53125 287.914062 L 182.824219 286.570312 L 186.988281 278.152344 " fill-opacity="1" fill-rule="nonzero"></path>
  <path fill="#100f0d" d="M 157.542969 275.949219 L 154.550781 277.957031 L 151.191406 276.640625 L 152.1875 280.097656 L 149.886719 282.882812 L 153.492188 283.007812 L 155.429688 286.050781 L 156.660156 282.667969 L 160.164062 281.765625 L 157.3125 279.539062 L 157.542969 275.949219 " fill-opacity="1" fill-rule="nonzero"></path>
  <path fill="#100f0d" d="M 147.984375 265.8125 L 144.988281 267.820312 L 142.632812 266.496094 L 142.628906 269.964844 L 140.328125 272.75 L 143.933594 272.875 L 145.871094 275.917969 L 147.101562 272.53125 L 150.59375 271.632812 L 147.753906 269.414062 L 147.984375 265.8125 " fill-opacity="1" fill-rule="nonzero"></path>
  <path fill="#100f0d" d="M 138.746094 256.03125 L 135.761719 258.039062 L 132.40625 256.714844 L 133.390625 260.179688 L 131.101562 262.957031 L 134.707031 263.089844 L 136.640625 266.132812 L 137.875 262.75 L 141.363281 261.847656 L 138.527344 259.621094 L 138.746094 256.03125 " fill-opacity="1" fill-rule="nonzero"></path>
  <path fill="#100f0d" d="M 173.003906 55.75 C 173.003906 55.75 182.128906 54.828125 197.664062 55.738281 L 201.164062 58.078125 L 197.664062 62.984375 C 197.664062 62.984375 187.472656 61.609375 173.003906 62.984375 L 170.582031 60.179688 L 173.003906 55.75 " fill-opacity="1" fill-rule="nonzero"></path>
</svg>
