<?xml version="1.0" encoding="UTF-8"?>
<svg xmlns="http://www.w3.org/2000/svg" xmlns:xlink="http://www.w3.org/1999/xlink" width="500" zoomAndPan="magnify" viewBox="0 0 375 374.999991" height="500" preserveAspectRatio="xMidYMid meet" version="1.0">
  <defs>
    <g></g>
    <clipPath id="id1">
      <path d="M 21.183594 16.683594 L 354.183594 16.683594 L 354.183594 349.683594 L 21.183594 349.683594 Z M 21.183594 16.683594 " clip-rule="nonzero"></path>
    </clipPath>
    <clipPath id="id2">
      <path d="M 116 189 L 293 189 L 293 327.847656 L 116 327.847656 Z M 116 189 " clip-rule="nonzero"></path>
    </clipPath>
    <clipPath id="id3">
      <path d="M 91 119 L 309.832031 119 L 309.832031 282 L 91 282 Z M 91 119 " clip-rule="nonzero"></path>
    </clipPath>
    <clipPath id="id4">
      <path d="M 170 62.304688 L 202 62.304688 L 202 71 L 170 71 Z M 170 62.304688 " clip-rule="nonzero"></path>
    </clipPath>
  </defs>
  <g clip-path="url(#id1)">
    <path fill="#ffffff" d="M 354.183594 183.183594 C 354.183594 185.910156 354.117188 188.632812 353.984375 191.355469 C 353.851562 194.078125 353.648438 196.792969 353.382812 199.503906 C 353.117188 202.214844 352.78125 204.921875 352.382812 207.617188 C 351.984375 210.3125 351.515625 212.996094 350.984375 215.667969 C 350.453125 218.339844 349.855469 220.996094 349.195312 223.640625 C 348.53125 226.285156 347.804688 228.910156 347.015625 231.515625 C 346.222656 234.125 345.371094 236.710938 344.453125 239.277344 C 343.535156 241.84375 342.554688 244.382812 341.511719 246.902344 C 340.46875 249.417969 339.363281 251.910156 338.199219 254.371094 C 337.035156 256.835938 335.808594 259.269531 334.523438 261.671875 C 333.242188 264.074219 331.898438 266.445312 330.496094 268.78125 C 329.097656 271.121094 327.636719 273.421875 326.125 275.6875 C 324.609375 277.953125 323.042969 280.179688 321.417969 282.367188 C 319.796875 284.558594 318.121094 286.707031 316.390625 288.8125 C 314.664062 290.917969 312.882812 292.980469 311.054688 295 C 309.222656 297.019531 307.34375 298.992188 305.417969 300.917969 C 303.492188 302.84375 301.519531 304.722656 299.5 306.554688 C 297.480469 308.382812 295.417969 310.164062 293.3125 311.890625 C 291.207031 313.621094 289.058594 315.296875 286.867188 316.917969 C 284.679688 318.542969 282.453125 320.109375 280.1875 321.625 C 277.921875 323.136719 275.621094 324.597656 273.28125 325.996094 C 270.945312 327.398438 268.574219 328.742188 266.171875 330.023438 C 263.769531 331.308594 261.335938 332.535156 258.871094 333.699219 C 256.410156 334.863281 253.917969 335.96875 251.402344 337.011719 C 248.882812 338.054688 246.34375 339.035156 243.777344 339.953125 C 241.210938 340.871094 238.625 341.722656 236.015625 342.515625 C 233.410156 343.304688 230.785156 344.03125 228.140625 344.695312 C 225.496094 345.355469 222.839844 345.953125 220.167969 346.484375 C 217.496094 347.015625 214.8125 347.484375 212.117188 347.882812 C 209.421875 348.28125 206.714844 348.617188 204.003906 348.882812 C 201.292969 349.148438 198.578125 349.351562 195.855469 349.484375 C 193.132812 349.617188 190.410156 349.683594 187.683594 349.683594 C 184.960938 349.683594 182.238281 349.617188 179.515625 349.484375 C 176.792969 349.351562 174.078125 349.148438 171.363281 348.882812 C 168.652344 348.617188 165.949219 348.28125 163.253906 347.882812 C 160.558594 347.484375 157.875 347.015625 155.203125 346.484375 C 152.53125 345.953125 149.871094 345.355469 147.230469 344.695312 C 144.585938 344.03125 141.960938 343.304688 139.351562 342.515625 C 136.746094 341.722656 134.160156 340.871094 131.59375 339.953125 C 129.027344 339.035156 126.484375 338.054688 123.96875 337.011719 C 121.449219 335.96875 118.960938 334.863281 116.496094 333.699219 C 114.035156 332.535156 111.601562 331.308594 109.199219 330.023438 C 106.792969 328.742188 104.425781 327.398438 102.085938 325.996094 C 99.75 324.597656 97.449219 323.136719 95.183594 321.625 C 92.917969 320.109375 90.691406 318.542969 88.5 316.917969 C 86.3125 315.296875 84.164062 313.621094 82.058594 311.890625 C 79.953125 310.164062 77.890625 308.382812 75.871094 306.554688 C 73.851562 304.722656 71.878906 302.84375 69.953125 300.917969 C 68.023438 298.992188 66.148438 297.019531 64.316406 295 C 62.488281 292.980469 60.707031 290.917969 58.980469 288.8125 C 57.25 286.707031 55.574219 284.558594 53.949219 282.367188 C 52.328125 280.179688 50.757812 277.953125 49.246094 275.6875 C 47.730469 273.421875 46.273438 271.121094 44.875 268.78125 C 43.472656 266.445312 42.128906 264.074219 40.84375 261.671875 C 39.5625 259.269531 38.335938 256.835938 37.171875 254.371094 C 36.003906 251.910156 34.902344 249.417969 33.859375 246.902344 C 32.816406 244.382812 31.835938 241.84375 30.917969 239.277344 C 30 236.710938 29.144531 234.125 28.355469 231.515625 C 27.5625 228.910156 26.835938 226.285156 26.175781 223.640625 C 25.511719 220.996094 24.914062 218.339844 24.382812 215.667969 C 23.851562 212.996094 23.386719 210.3125 22.988281 207.617188 C 22.585938 204.921875 22.253906 202.214844 21.988281 199.503906 C 21.71875 196.792969 21.519531 194.078125 21.386719 191.355469 C 21.25 188.632812 21.183594 185.910156 21.183594 183.183594 C 21.183594 180.460938 21.25 177.738281 21.386719 175.015625 C 21.519531 172.292969 21.71875 169.578125 21.988281 166.863281 C 22.253906 164.152344 22.585938 161.449219 22.988281 158.753906 C 23.386719 156.058594 23.851562 153.375 24.382812 150.703125 C 24.914062 148.03125 25.511719 145.371094 26.175781 142.730469 C 26.835938 140.085938 27.5625 137.460938 28.355469 134.851562 C 29.144531 132.246094 30 129.660156 30.917969 127.09375 C 31.835938 124.527344 32.816406 121.984375 33.859375 119.46875 C 34.902344 116.949219 36.003906 114.460938 37.171875 111.996094 C 38.335938 109.535156 39.5625 107.101562 40.84375 104.699219 C 42.128906 102.292969 43.472656 99.925781 44.875 97.585938 C 46.273438 95.25 47.730469 92.949219 49.246094 90.683594 C 50.757812 88.417969 52.328125 86.191406 53.949219 84 C 55.574219 81.8125 57.25 79.664062 58.980469 77.558594 C 60.707031 75.453125 62.488281 73.390625 64.316406 71.371094 C 66.148438 69.351562 68.023438 67.378906 69.953125 65.453125 C 71.878906 63.523438 73.851562 61.648438 75.871094 59.816406 C 77.890625 57.988281 79.953125 56.207031 82.058594 54.480469 C 84.164062 52.75 86.3125 51.074219 88.5 49.449219 C 90.691406 47.828125 92.917969 46.257812 95.183594 44.746094 C 97.449219 43.230469 99.75 41.773438 102.085938 40.375 C 104.425781 38.972656 106.792969 37.628906 109.199219 36.34375 C 111.601562 35.0625 114.035156 33.835938 116.496094 32.671875 C 118.960938 31.503906 121.449219 30.402344 123.96875 29.359375 C 126.484375 28.316406 129.027344 27.335938 131.59375 26.417969 C 134.160156 25.5 136.746094 24.644531 139.351562 23.855469 C 141.960938 23.0625 144.585938 22.335938 147.230469 21.675781 C 149.871094 21.011719 152.53125 20.414062 155.203125 19.882812 C 157.875 19.351562 160.558594 18.886719 163.253906 18.488281 C 165.949219 18.085938 168.652344 17.753906 171.363281 17.488281 C 174.078125 17.21875 176.792969 17.019531 179.515625 16.886719 C 182.238281 16.75 184.960938 16.683594 187.683594 16.683594 C 190.410156 16.683594 193.132812 16.75 195.855469 16.886719 C 198.578125 17.019531 201.292969 17.21875 204.003906 17.488281 C 206.714844 17.753906 209.421875 18.085938 212.117188 18.488281 C 214.8125 18.886719 217.496094 19.351562 220.167969 19.882812 C 222.839844 20.414062 225.496094 21.011719 228.140625 21.675781 C 230.785156 22.335938 233.410156 23.0625 236.015625 23.855469 C 238.625 24.644531 241.210938 25.5 243.777344 26.417969 C 246.34375 27.335938 248.882812 28.316406 251.402344 29.359375 C 253.917969 30.402344 256.410156 31.503906 258.871094 32.671875 C 261.335938 33.835938 263.769531 35.0625 266.171875 36.34375 C 268.574219 37.628906 270.945312 38.972656 273.28125 40.375 C 275.621094 41.773438 277.921875 43.230469 280.1875 44.746094 C 282.453125 46.257812 284.679688 47.828125 286.867188 49.449219 C 289.058594 51.074219 291.207031 52.75 293.3125 54.480469 C 295.417969 56.207031 297.480469 57.988281 299.5 59.816406 C 301.519531 61.648438 303.492188 63.523438 305.417969 65.453125 C 307.34375 67.378906 309.222656 69.351562 311.054688 71.371094 C 312.882812 73.390625 314.664062 75.453125 316.390625 77.558594 C 318.121094 79.664062 319.796875 81.8125 321.417969 84 C 323.042969 86.191406 324.609375 88.417969 326.125 90.683594 C 327.636719 92.949219 329.097656 95.25 330.496094 97.585938 C 331.898438 99.925781 333.242188 102.292969 334.523438 104.699219 C 335.808594 107.101562 337.035156 109.535156 338.199219 111.996094 C 339.363281 114.460938 340.46875 116.949219 341.511719 119.46875 C 342.554688 121.984375 343.535156 124.527344 344.453125 127.09375 C 345.371094 129.660156 346.222656 132.246094 347.015625 134.851562 C 347.804688 137.460938 348.53125 140.085938 349.195312 142.730469 C 349.855469 145.371094 350.453125 148.03125 350.984375 150.703125 C 351.515625 153.375 351.984375 156.058594 352.382812 158.753906 C 352.78125 161.449219 353.117188 164.152344 353.382812 166.863281 C 353.648438 169.578125 353.851562 172.292969 353.984375 175.015625 C 354.117188 177.738281 354.183594 180.460938 354.183594 183.183594 Z M 354.183594 183.183594 " fill-opacity="1" fill-rule="nonzero"></path>
  </g>
  <g fill="#c2021c" fill-opacity="1">
    <g transform="translate(122.37722, 165.758927)">
      <g>
        <path d="M 22.8125 -25.257812 C 15.339844 -26.25 8.660156 -27.703125 8.660156 -33.523438 C 8.660156 -36.894531 10.976562 -42.84375 20.5625 -43.109375 L 20.5625 -47.011719 C 8.066406 -46.878906 4.429688 -38.148438 4.429688 -33.390625 C 4.429688 -24.792969 12.960938 -22.679688 20.167969 -21.6875 C 29.222656 -20.363281 34.316406 -18.445312 34.316406 -12.695312 C 34.316406 -5.621094 28.101562 -3.238281 21.621094 -3.109375 L 21.621094 0.726562 C 33.191406 0.792969 38.546875 -5.949219 38.546875 -12.828125 C 38.546875 -21.421875 31.40625 -24.066406 22.8125 -25.257812 Z M 3.96875 -4.363281 C 8.660156 -1.125 14.214844 0.527344 20.363281 0.726562 L 20.363281 -3.109375 C 15.605469 -3.238281 10.050781 -4.957031 6.082031 -7.667969 C 5.820312 -7.867188 5.621094 -7.933594 5.421875 -7.933594 C 5.15625 -7.933594 5.023438 -7.734375 4.761719 -7.40625 L 3.703125 -5.6875 C 3.371094 -5.023438 3.371094 -4.761719 3.96875 -4.363281 Z M 21.820312 -43.175781 C 26.644531 -43.109375 31.207031 -41.324219 35.242188 -38.613281 C 35.503906 -38.480469 35.636719 -38.414062 35.835938 -38.414062 C 36.167969 -38.414062 36.363281 -38.613281 36.5625 -39.007812 L 37.554688 -40.664062 C 37.820312 -41.257812 37.886719 -41.589844 37.289062 -41.984375 C 32.664062 -44.828125 28.234375 -46.8125 21.820312 -47.011719 Z M 21.820312 -43.175781 "></path>
      </g>
    </g>
  </g>
  <g fill="#c2021c" fill-opacity="1">
    <g transform="translate(164.555852, 165.758927)">
      <g>
        <path d="M 22.8125 -25.257812 C 15.339844 -26.25 8.660156 -27.703125 8.660156 -33.523438 C 8.660156 -36.894531 10.976562 -42.84375 20.5625 -43.109375 L 20.5625 -47.011719 C 8.066406 -46.878906 4.429688 -38.148438 4.429688 -33.390625 C 4.429688 -24.792969 12.960938 -22.679688 20.167969 -21.6875 C 29.222656 -20.363281 34.316406 -18.445312 34.316406 -12.695312 C 34.316406 -5.621094 28.101562 -3.238281 21.621094 -3.109375 L 21.621094 0.726562 C 33.191406 0.792969 38.546875 -5.949219 38.546875 -12.828125 C 38.546875 -21.421875 31.40625 -24.066406 22.8125 -25.257812 Z M 3.96875 -4.363281 C 8.660156 -1.125 14.214844 0.527344 20.363281 0.726562 L 20.363281 -3.109375 C 15.605469 -3.238281 10.050781 -4.957031 6.082031 -7.667969 C 5.820312 -7.867188 5.621094 -7.933594 5.421875 -7.933594 C 5.15625 -7.933594 5.023438 -7.734375 4.761719 -7.40625 L 3.703125 -5.6875 C 3.371094 -5.023438 3.371094 -4.761719 3.96875 -4.363281 Z M 21.820312 -43.175781 C 26.644531 -43.109375 31.207031 -41.324219 35.242188 -38.613281 C 35.503906 -38.480469 35.636719 -38.414062 35.835938 -38.414062 C 36.167969 -38.414062 36.363281 -38.613281 36.5625 -39.007812 L 37.554688 -40.664062 C 37.820312 -41.257812 37.886719 -41.589844 37.289062 -41.984375 C 32.664062 -44.828125 28.234375 -46.8125 21.820312 -47.011719 Z M 21.820312 -43.175781 "></path>
      </g>
    </g>
  </g>
  <g fill="#c2021c" fill-opacity="1">
    <g transform="translate(206.734483, 165.758927)">
      <g>
        <path d="M 42.050781 0 C 42.777344 0 42.976562 -0.199219 42.976562 -0.925781 L 42.976562 -25.191406 L 12.695312 -25.191406 L 12.695312 -21.289062 L 38.679688 -21.289062 L 38.679688 -0.925781 C 38.679688 -0.199219 38.878906 0 39.605469 0 Z M 10.511719 0 C 11.238281 0 11.4375 -0.199219 11.4375 -0.925781 L 11.4375 -45.355469 C 11.4375 -46.085938 11.238281 -46.28125 10.511719 -46.28125 L 8.066406 -46.28125 C 7.339844 -46.28125 7.140625 -46.085938 7.140625 -45.355469 L 7.140625 -0.925781 C 7.140625 -0.199219 7.339844 0 8.066406 0 Z M 39.605469 -46.28125 C 38.878906 -46.28125 38.679688 -46.085938 38.679688 -45.355469 L 38.679688 -26.445312 L 42.976562 -26.445312 L 42.976562 -45.355469 C 42.976562 -46.085938 42.777344 -46.28125 42.050781 -46.28125 Z M 39.605469 -46.28125 "></path>
      </g>
    </g>
  </g>
  <path fill="#100f0d" d="M 296.800781 119.472656 C 298.320312 119.5625 299.804688 119.90625 301.199219 120.453125 C 301.117188 104.625 299.6875 94.824219 299.6875 94.824219 C 266.402344 71.953125 219.640625 65.207031 197.664062 63.238281 L 197.664062 70.484375 C 218.617188 72.429688 261.628906 78.777344 292.914062 98.964844 C 293.515625 104.9375 294.5625 119.117188 293.421875 137.875 C 293.300781 139.824219 293.152344 141.832031 292.988281 143.882812 L 292.90625 144.679688 L 292.355469 149.449219 C 294.085938 148.757812 295.765625 148 297.367188 147.152344 C 297.015625 147.089844 296.65625 147.027344 296.28125 146.945312 L 296.800781 119.472656 " fill-opacity="1" fill-rule="nonzero"></path>
  <g clip-path="url(#id2)">
    <path fill="#100f0d" d="M 283.636719 194.988281 C 277.195312 217.027344 266.941406 240.226562 250.804688 261.71875 C 250.503906 262.113281 221.652344 300.0625 185.328125 319.730469 C 160.058594 306.035156 138.402344 283.480469 127.476562 270.910156 C 123.3125 266.128906 120.703125 262.785156 120.050781 261.9375 C 118.753906 263.539062 117.636719 265.144531 116.765625 266.707031 C 120.101562 264.761719 125.890625 274.046875 125.890625 274.046875 L 131.320312 278.117188 C 130.160156 279.546875 128.554688 280.488281 126.792969 280.984375 C 139.550781 294.960938 160.835938 315.476562 185.328125 327.847656 C 225.183594 307.742188 256.554688 266.046875 256.554688 266.046875 C 272.605469 244.667969 283.054688 221.789062 289.757812 199.925781 C 290.089844 198.882812 290.410156 197.824219 290.710938 196.769531 C 290.980469 195.816406 291.257812 194.875 291.515625 193.933594 C 291.941406 192.402344 292.316406 190.898438 292.707031 189.398438 C 290.066406 190.453125 287.292969 191.3125 284.464844 192.058594 C 284.183594 193.03125 283.925781 194.003906 283.636719 194.988281 " fill-opacity="1" fill-rule="nonzero"></path>
  </g>
  <path fill="#100f0d" d="M 82.671875 177.886719 C 74.5625 140.300781 76.757812 108.703125 77.753906 98.964844 C 109.082031 78.746094 152.054688 72.421875 173.003906 70.484375 L 173.003906 63.25 C 151.027344 65.207031 104.277344 71.953125 71 94.824219 C 71 94.824219 65.53125 131.832031 75.296875 178.15625 C 76.996094 186.191406 79.152344 194.511719 81.875 202.96875 C 85.46875 214.140625 90.058594 225.539062 95.878906 236.84375 C 97.277344 234.8125 98.964844 232.753906 100.847656 230.695312 C 96.261719 221.417969 92.511719 212.070312 89.464844 202.867188 C 86.648438 194.367188 84.421875 185.992188 82.671875 177.886719 " fill-opacity="1" fill-rule="nonzero"></path>
  <g clip-path="url(#id3)">
    <path fill="#100f0d" d="M 299.792969 178.269531 C 292.792969 184.6875 280.734375 186.976562 270.109375 188.996094 C 267.957031 189.410156 265.851562 189.804688 263.84375 190.226562 C 250.578125 193 234.867188 196.449219 218.9375 201.003906 C 192.929688 208.457031 171.335938 217.378906 152.921875 228.269531 C 147.039062 231.738281 120 248.292969 111.382812 264.046875 L 110.585938 263.210938 L 110.644531 263.199219 C 110.644531 263.199219 110.636719 263.136719 110.617188 263.011719 C 110.574219 262.898438 110.574219 262.628906 110.59375 262.277344 C 110.65625 261.53125 110.925781 260.289062 111.496094 258.777344 C 111.765625 258.035156 112.105469 257.207031 112.511719 256.355469 C 112.894531 255.496094 113.371094 254.628906 113.855469 253.757812 C 114.386719 252.898438 114.964844 252 115.617188 251.117188 C 116.25 250.226562 116.972656 249.347656 117.679688 248.46875 C 120.566406 244.980469 123.789062 241.707031 126.253906 239.304688 C 128.71875 236.90625 130.4375 235.371094 130.4375 235.371094 C 130.4375 235.371094 128.542969 236.667969 125.777344 238.746094 C 123.011719 240.816406 119.378906 243.664062 115.960938 246.851562 C 115.109375 247.660156 114.261719 248.457031 113.464844 249.316406 C 112.65625 250.15625 111.898438 251.046875 111.183594 251.945312 C 110.480469 252.867188 109.859375 253.757812 109.339844 254.660156 C 108.804688 255.539062 108.335938 256.398438 107.921875 257.226562 C 107.550781 257.980469 107.238281 258.695312 106.980469 259.378906 L 106.328125 258.695312 C 106.308594 258.570312 106.308594 258.332031 106.328125 258.003906 C 106.378906 257.265625 106.648438 256.015625 107.21875 254.511719 C 107.496094 253.757812 107.839844 252.929688 108.234375 252.082031 C 108.625 251.230469 109.09375 250.351562 109.589844 249.492188 C 110.109375 248.625 110.6875 247.734375 111.351562 246.84375 C 111.984375 245.953125 112.695312 245.082031 113.402344 244.191406 C 116.289062 240.703125 119.511719 237.433594 121.976562 235.03125 C 124.453125 232.628906 126.171875 231.097656 126.171875 231.097656 C 126.171875 231.097656 124.265625 232.390625 121.5 234.472656 C 118.734375 236.542969 115.101562 239.390625 111.683594 242.578125 C 110.84375 243.394531 109.984375 244.191406 109.195312 245.050781 C 108.378906 245.890625 107.621094 246.769531 106.917969 247.671875 C 106.203125 248.59375 105.59375 249.492188 105.0625 250.382812 C 104.535156 251.261719 104.058594 252.121094 103.65625 252.949219 C 103.304688 253.632812 103.023438 254.296875 102.773438 254.925781 L 101.78125 253.882812 C 101.792969 253.769531 101.792969 253.644531 101.800781 253.5 C 101.851562 252.753906 102.121094 251.511719 102.691406 250 C 102.972656 249.253906 103.3125 248.425781 103.707031 247.578125 C 104.089844 246.71875 104.566406 245.847656 105.0625 244.980469 C 105.582031 244.121094 106.160156 243.21875 106.824219 242.339844 C 107.457031 241.449219 108.171875 240.578125 108.875 239.6875 C 111.773438 236.199219 114.996094 232.929688 117.460938 230.527344 C 119.925781 228.125 121.644531 226.59375 121.644531 226.59375 C 121.644531 226.59375 119.738281 227.886719 116.972656 229.96875 C 114.210938 232.039062 110.574219 234.886719 107.15625 238.074219 C 106.316406 238.882812 105.457031 239.6875 104.671875 240.546875 C 103.851562 241.375 103.097656 242.265625 102.390625 243.167969 C 101.6875 244.089844 101.066406 244.980469 100.539062 245.878906 C 100.011719 246.761719 99.535156 247.617188 99.121094 248.449219 C 98.808594 249.070312 98.550781 249.667969 98.320312 250.25 C 97.585938 249.335938 97.453125 248.488281 97.546875 247.546875 C 98.382812 237.867188 120.371094 219.480469 141.65625 206.335938 C 161.519531 194.058594 184.945312 183.964844 213.273438 175.484375 C 230.753906 170.246094 248.277344 166.230469 263.109375 162.980469 C 265.304688 162.503906 267.59375 162.050781 269.945312 161.582031 C 280.703125 159.449219 292.585938 157.101562 302.308594 151.292969 L 302.082031 155.164062 C 301.261719 155.652344 300.15625 156.3125 298.820312 157.109375 C 298.644531 157.214844 298.46875 157.328125 298.28125 157.433594 L 298.144531 157.515625 L 298.082031 157.554688 C 298.050781 157.566406 298.28125 157.464844 298.175781 157.515625 L 298.167969 157.515625 L 298.144531 157.523438 L 298.113281 157.546875 L 297.824219 157.679688 C 297.441406 157.867188 297.046875 158.0625 296.632812 158.269531 C 295.816406 158.675781 294.925781 159.046875 294.011719 159.472656 C 292.148438 160.246094 290.152344 161.054688 288.109375 161.78125 C 279.9375 164.71875 271.414062 166.75 271.414062 166.75 C 271.414062 166.75 280.113281 165.835938 288.730469 163.941406 C 290.886719 163.476562 293.03125 162.917969 295.039062 162.371094 C 296.042969 162.058594 297.007812 161.800781 297.929688 161.480469 C 298.382812 161.324219 298.828125 161.167969 299.265625 161.023438 L 299.585938 160.921875 L 299.988281 160.746094 C 300.1875 160.652344 300.382812 160.570312 300.570312 160.484375 C 300.992188 160.300781 301.398438 160.125 301.78125 159.957031 L 301.617188 162.640625 C 300.871094 163.09375 299.917969 163.664062 298.820312 164.316406 C 298.644531 164.429688 298.46875 164.535156 298.28125 164.636719 L 298.144531 164.730469 L 298.082031 164.769531 C 298.050781 164.78125 298.28125 164.667969 298.175781 164.71875 L 298.167969 164.71875 L 298.144531 164.730469 L 298.113281 164.75 L 297.824219 164.894531 C 297.441406 165.082031 297.046875 165.277344 296.632812 165.476562 C 295.816406 165.878906 294.925781 166.261719 294.011719 166.675781 C 292.148438 167.453125 290.152344 168.261719 288.109375 168.972656 C 279.9375 171.925781 271.414062 173.953125 271.414062 173.953125 C 271.414062 173.953125 280.113281 173.054688 288.730469 171.136719 C 290.886719 170.691406 293.03125 170.125 295.039062 169.574219 C 296.042969 169.265625 297.007812 168.996094 297.929688 168.683594 C 298.382812 168.527344 298.828125 168.382812 299.265625 168.230469 L 299.585938 168.125 L 299.988281 167.949219 C 300.1875 167.867188 300.382812 167.773438 300.570312 167.699219 C 300.828125 167.585938 301.085938 167.472656 301.335938 167.359375 L 301.160156 170.207031 C 300.488281 170.609375 299.710938 171.085938 298.820312 171.613281 C 298.644531 171.71875 298.46875 171.820312 298.28125 171.933594 L 298.144531 172.019531 L 298.082031 172.058594 C 298.050781 172.070312 298.28125 171.964844 298.175781 172.007812 L 298.167969 172.019531 L 298.144531 172.027344 L 298.113281 172.039062 L 297.824219 172.183594 C 297.441406 172.371094 297.046875 172.566406 296.632812 172.761719 C 295.816406 173.175781 294.925781 173.550781 294.011719 173.964844 C 292.148438 174.742188 290.152344 175.546875 288.109375 176.273438 C 279.9375 179.222656 271.414062 181.242188 271.414062 181.242188 C 271.414062 181.242188 280.113281 180.339844 288.730469 178.4375 C 290.886719 177.980469 293.03125 177.421875 295.039062 176.871094 C 296.042969 176.5625 297.007812 176.292969 297.929688 175.984375 C 298.382812 175.828125 298.828125 175.671875 299.265625 175.527344 L 299.585938 175.414062 L 299.988281 175.238281 C 300.1875 175.15625 300.382812 175.070312 300.570312 174.988281 C 300.671875 174.9375 300.777344 174.894531 300.878906 174.855469 L 300.746094 176.976562 C 300.507812 177.472656 300.175781 177.917969 299.792969 178.269531 Z M 308.894531 128.300781 C 307.1875 123.074219 302.164062 119.78125 296.800781 119.472656 L 296.28125 146.945312 C 296.65625 147.027344 297.015625 147.089844 297.367188 147.152344 C 286.648438 152.847656 272.96875 154.6875 261.824219 157.121094 C 244.941406 160.804688 228.113281 164.769531 211.542969 169.730469 C 186.125 177.339844 161.113281 187.246094 138.496094 201.222656 C 128.292969 207.527344 77.96875 240.269531 94.996094 255.445312 L 115.84375 277.527344 C 116.28125 278.15625 116.820312 278.757812 117.492188 279.328125 C 121.582031 282.433594 128.128906 282.050781 131.320312 278.117188 L 125.890625 274.046875 C 125.890625 274.046875 120.101562 264.761719 116.765625 266.707031 C 124.152344 253.363281 149.328125 237.359375 155.976562 233.4375 C 175.976562 221.605469 198.121094 213.21875 220.582031 206.78125 C 235.25 202.585938 250.140625 199.222656 265.078125 196.105469 C 277.722656 193.457031 294.074219 191.675781 303.832031 182.710938 C 305.167969 181.5 306.132812 179.949219 306.691406 178.269531 L 307.023438 172.855469 L 309.414062 133.539062 C 309.425781 133.363281 309.433594 133.269531 309.433594 133.269531 C 309.578125 131.601562 309.425781 129.90625 308.894531 128.300781 " fill-opacity="1" fill-rule="nonzero"></path>
  </g>
  <path fill="#100f0d" d="M 214.390625 283.273438 L 217.382812 285.289062 L 220.730469 283.964844 L 219.746094 287.421875 L 222.042969 290.207031 L 218.441406 290.332031 L 216.503906 293.375 L 215.261719 289.988281 L 211.769531 289.089844 L 214.609375 286.863281 L 214.390625 283.273438 " fill-opacity="1" fill-rule="nonzero"></path>
  <path fill="#100f0d" d="M 223.949219 273.136719 L 226.941406 275.144531 L 230.296875 273.832031 L 229.304688 277.289062 L 231.601562 280.074219 L 228 280.207031 L 226.0625 283.242188 L 224.832031 279.855469 L 221.339844 278.953125 L 224.175781 276.738281 L 223.949219 273.136719 " fill-opacity="1" fill-rule="nonzero"></path>
  <path fill="#100f0d" d="M 233.175781 263.355469 L 236.171875 265.363281 L 239.527344 264.039062 L 238.53125 267.503906 L 240.832031 270.289062 L 237.226562 270.414062 L 235.289062 273.457031 L 234.058594 270.074219 L 230.566406 269.171875 L 233.40625 266.945312 L 233.175781 263.355469 " fill-opacity="1" fill-rule="nonzero"></path>
  <path fill="#100f0d" d="M 186.988281 285.652344 L 191.140625 294.070312 L 200.429688 295.414062 L 193.707031 301.96875 L 195.292969 311.222656 L 186.988281 306.855469 L 178.667969 311.222656 L 180.265625 301.96875 L 173.53125 295.414062 L 182.824219 294.070312 L 186.988281 285.652344 " fill-opacity="1" fill-rule="nonzero"></path>
  <path fill="#100f0d" d="M 157.542969 283.449219 L 154.550781 285.457031 L 151.191406 284.140625 L 152.1875 287.597656 L 149.886719 290.382812 L 153.492188 290.507812 L 155.429688 293.550781 L 156.660156 290.167969 L 160.164062 289.265625 L 157.3125 287.039062 L 157.542969 283.449219 " fill-opacity="1" fill-rule="nonzero"></path>
  <path fill="#100f0d" d="M 147.984375 273.3125 L 144.988281 275.320312 L 141.632812 273.996094 L 142.628906 277.464844 L 140.328125 280.25 L 143.933594 280.375 L 145.871094 283.417969 L 147.101562 280.03125 L 150.59375 279.128906 L 147.753906 276.914062 L 147.984375 273.3125 " fill-opacity="1" fill-rule="nonzero"></path>
  <path fill="#100f0d" d="M 138.746094 263.53125 L 135.761719 265.539062 L 132.40625 264.214844 L 133.390625 267.679688 L 131.101562 270.457031 L 134.707031 270.589844 L 136.640625 273.632812 L 137.875 270.25 L 141.363281 269.347656 L 138.527344 267.121094 L 138.746094 263.53125 " fill-opacity="1" fill-rule="nonzero"></path>
  <g clip-path="url(#id4)">
    <path fill="#100f0d" d="M 173.003906 63.25 C 173.003906 63.25 182.128906 62.328125 197.664062 63.238281 L 201.164062 65.578125 L 197.664062 70.484375 C 197.664062 70.484375 187.472656 69.109375 173.003906 70.484375 L 170.582031 67.679688 L 173.003906 63.25 " fill-opacity="1" fill-rule="nonzero"></path>
  </g>
</svg>
