<?xml version="1.0" encoding="UTF-8"?>
<svg xmlns="http://www.w3.org/2000/svg" xmlns:xlink="http://www.w3.org/1999/xlink" width="500" zoomAndPan="magnify" viewBox="0 0 375 374.999991" height="500" preserveAspectRatio="xMidYMid meet" version="1.0">
  <defs>
    <g></g>
    <clipPath id="id1">
      <path d="M 7.4375 7.4375 L 367.4375 7.4375 L 367.4375 367.4375 L 7.4375 367.4375 Z M 7.4375 7.4375 " clip-rule="nonzero"></path>
    </clipPath>
    <clipPath id="id2">
      <path d="M 61.410156 16.824219 L 313.410156 16.824219 L 313.410156 358 L 61.410156 358 Z M 61.410156 16.824219 " clip-rule="nonzero"></path>
    </clipPath>
  </defs>
  <g clip-path="url(#id1)">
    <path fill="#ffffff" d="M 187.4375 7.4375 C 88.023438 7.4375 7.4375 88.023438 7.4375 187.4375 C 7.4375 286.847656 88.023438 367.4375 187.4375 367.4375 C 286.847656 367.4375 367.4375 286.847656 367.4375 187.4375 C 367.4375 88.023438 286.847656 7.4375 187.4375 7.4375 " fill-opacity="1" fill-rule="nonzero"></path>
  </g>
  <g clip-path="url(#id2)">
    <path fill="#000000" d="M 190.007812 17.957031 C 189.363281 17.242188 188.449219 16.835938 187.484375 16.835938 C 186.476562 16.878906 185.539062 17.363281 184.921875 18.164062 C 158.09375 52.648438 118.851562 70.65625 64.742188 73.246094 C 62.925781 73.339844 61.5 74.84375 61.507812 76.660156 C 61.507812 84.457031 61.507812 146.800781 61.507812 154.597656 C 61.507812 235.230469 104.398438 305.359375 185.574219 357.378906 C 186.695312 358.09375 188.136719 358.09375 189.253906 357.378906 C 270.503906 305.359375 313.394531 235.128906 313.394531 154.597656 C 313.394531 146.800781 313.394531 84.457031 313.394531 76.660156 C 313.394531 74.863281 312.011719 73.375 310.222656 73.246094 C 259.285156 68.953125 219.941406 50.941406 190.007812 17.957031 Z M 306.570312 154.597656 C 306.570312 232.191406 265.417969 299.933594 187.484375 350.453125 C 109.546875 299.933594 68.394531 232.191406 68.394531 154.597656 C 68.394531 147.121094 68.394531 87.34375 68.394531 79.863281 C 121.242188 76.730469 160.449219 58.886719 187.722656 25.464844 C 217.550781 56.773438 257.511719 75.019531 306.609375 79.765625 C 306.601562 94.726562 306.578125 139.628906 306.570312 154.597656 Z M 306.570312 154.597656 " fill-opacity="1" fill-rule="nonzero"></path>
  </g>
  <g fill="#c2021c" fill-opacity="1">
    <g transform="translate(115.90962, 190.083444)">
      <g>
        <path d="M 24.289062 -26.894531 C 16.332031 -27.949219 9.222656 -29.5 9.222656 -35.695312 C 9.222656 -39.285156 11.6875 -45.621094 21.894531 -45.902344 L 21.894531 -50.054688 C 8.589844 -49.914062 4.71875 -40.621094 4.71875 -35.554688 C 4.71875 -26.402344 13.800781 -24.148438 21.472656 -23.09375 C 31.117188 -21.683594 36.539062 -19.640625 36.539062 -13.515625 C 36.539062 -5.984375 29.921875 -3.449219 23.023438 -3.308594 L 23.023438 0.773438 C 35.34375 0.84375 41.042969 -6.335938 41.042969 -13.65625 C 41.042969 -22.808594 33.441406 -25.625 24.289062 -26.894531 Z M 4.222656 -4.648438 C 9.222656 -1.195312 15.136719 0.5625 21.683594 0.773438 L 21.683594 -3.308594 C 16.613281 -3.449219 10.703125 -5.28125 6.476562 -8.167969 C 6.195312 -8.378906 5.984375 -8.449219 5.773438 -8.449219 C 5.492188 -8.449219 5.351562 -8.238281 5.070312 -7.886719 L 3.941406 -6.054688 C 3.589844 -5.351562 3.589844 -5.070312 4.222656 -4.648438 Z M 23.234375 -45.972656 C 28.371094 -45.902344 33.230469 -44 37.523438 -41.113281 C 37.804688 -40.972656 37.945312 -40.902344 38.15625 -40.902344 C 38.511719 -40.902344 38.722656 -41.113281 38.933594 -41.539062 L 39.988281 -43.296875 C 40.269531 -43.929688 40.339844 -44.28125 39.707031 -44.707031 C 34.777344 -47.734375 30.0625 -49.84375 23.234375 -50.054688 Z M 23.234375 -45.972656 "></path>
      </g>
    </g>
  </g>
  <g fill="#c2021c" fill-opacity="1">
    <g transform="translate(160.82136, 190.083444)">
      <g>
        <path d="M 24.289062 -26.894531 C 16.332031 -27.949219 9.222656 -29.5 9.222656 -35.695312 C 9.222656 -39.285156 11.6875 -45.621094 21.894531 -45.902344 L 21.894531 -50.054688 C 8.589844 -49.914062 4.71875 -40.621094 4.71875 -35.554688 C 4.71875 -26.402344 13.800781 -24.148438 21.472656 -23.09375 C 31.117188 -21.683594 36.539062 -19.640625 36.539062 -13.515625 C 36.539062 -5.984375 30.921875 -3.449219 23.023438 -3.308594 L 23.023438 0.773438 C 35.34375 0.84375 41.042969 -6.335938 41.042969 -13.65625 C 41.042969 -22.808594 33.441406 -25.625 24.289062 -26.894531 Z M 4.222656 -4.648438 C 9.222656 -1.195312 15.136719 0.5625 21.683594 0.773438 L 21.683594 -3.308594 C 16.613281 -3.449219 10.703125 -5.28125 6.476562 -8.167969 C 6.195312 -8.378906 5.984375 -8.449219 5.773438 -8.449219 C 5.492188 -8.449219 5.351562 -8.238281 5.070312 -7.886719 L 3.941406 -6.054688 C 3.589844 -5.351562 3.589844 -5.070312 4.222656 -4.648438 Z M 23.234375 -45.972656 C 28.371094 -45.902344 33.230469 -44 37.523438 -41.113281 C 37.804688 -40.972656 37.945312 -40.902344 38.15625 -40.902344 C 38.511719 -40.902344 38.722656 -41.113281 38.933594 -41.539062 L 39.988281 -43.296875 C 40.269531 -43.929688 40.339844 -44.28125 39.707031 -44.707031 C 34.777344 -47.734375 30.0625 -49.84375 23.234375 -50.054688 Z M 23.234375 -45.972656 "></path>
      </g>
    </g>
  </g>
  <g fill="#c2021c" fill-opacity="1">
    <g transform="translate(205.7331, 190.083444)">
      <g>
        <path d="M 44.777344 0 C 45.550781 0 45.761719 -0.210938 45.761719 -0.984375 L 45.761719 -26.824219 L 13.515625 -26.824219 L 13.515625 -22.667969 L 41.183594 -22.667969 L 41.183594 -0.984375 C 41.183594 -0.210938 41.398438 0 42.171875 0 Z M 11.195312 0 C 11.96875 0 12.179688 -0.210938 12.179688 -0.984375 L 12.179688 -48.296875 C 12.179688 -49.070312 11.96875 -49.28125 11.195312 -49.28125 L 8.589844 -49.28125 C 7.816406 -49.28125 7.601562 -49.070312 7.601562 -48.296875 L 7.601562 -0.984375 C 7.601562 -0.210938 7.816406 0 8.589844 0 Z M 42.171875 -49.28125 C 41.398438 -49.28125 41.183594 -49.070312 41.183594 -48.296875 L 41.183594 -28.160156 L 45.761719 -28.160156 L 45.761719 -48.296875 C 45.761719 -49.070312 45.550781 -49.28125 44.777344 -49.28125 Z M 42.171875 -49.28125 "></path>
      </g>
    </g>
  </g>
</svg>
